<svg width="18" height="18" viewBox="0 0 18 18" fill="none" xmlns="http://www.w3.org/2000/svg">
<path d="M1.5 15.75V13.5C1.5 13.3375 1.525 13.1813 1.575 13.0313C1.625 12.8813 1.7 12.7375 1.8 12.6L8.0625 4.16251L7.2 3.00001C7.1375 2.91251 7.09375 2.82176 7.06875 2.72776C7.04375 2.63426 7.0375 2.54051 7.05 2.44651C7.0625 2.35301 7.09375 2.26251 7.14375 2.17501C7.19375 2.08751 7.2625 2.01251 7.35 1.95001C7.525 1.82501 7.7125 1.77501 7.9125 1.80001C8.1125 1.82501 8.275 1.92501 8.4 2.10001L9 2.90626L9.6 2.10001C9.725 1.92501 9.8875 1.82501 10.0875 1.80001C10.2875 1.77501 10.475 1.82501 10.65 1.95001C10.825 2.07501 10.925 2.23751 10.95 2.43751C10.975 2.63751 10.925 2.82501 10.8 3.00001L9.9375 4.16251L16.2 12.6C16.3 12.7375 16.375 12.8813 16.425 13.0313C16.475 13.1813 16.5 13.3375 16.5 13.5V15.75C16.5 15.9625 16.428 16.1405 16.284 16.284C16.1405 16.428 15.9625 16.5 15.75 16.5H2.25C2.0375 16.5 1.8595 16.428 1.716 16.284C1.572 16.1405 1.5 15.9625 1.5 15.75ZM6.16875 15H11.8312L9 11.0438L6.16875 15Z" fill="#7B6250"/>
</svg>
