<svg xmlns="http://www.w3.org/2000/svg" xmlns:xlink="http://www.w3.org/1999/xlink"  zoomAndPan="magnify" viewBox="current" preserveAspectRatio="xMidYMid meet" version="1.0"><defs><clipPath id="ee845d929d"><path d="M 80.5625 190 L 91 190 L 91 200 L 80.5625 200 Z M 80.5625 190 " clip-rule="nonzero"/></clipPath><clipPath id="ba8513f1f3"><path d="M 260 75.695312 L 262 75.695312 L 262 80 L 260 80 Z M 260 75.695312 " clip-rule="nonzero"/></clipPath><clipPath id="8f4b8d6211"><path d="M 84 160 L 103 160 L 103 174 L 84 174 Z M 84 160 " clip-rule="nonzero"/></clipPath><clipPath id="361b660fba"><path d="M 75.011719 157.148438 L 101.21875 148.019531 L 107.878906 167.140625 L 81.675781 176.269531 Z M 75.011719 157.148438 " clip-rule="nonzero"/></clipPath><clipPath id="45a67cf120"><path d="M 75.011719 157.148438 L 101.21875 148.019531 L 107.878906 167.140625 L 81.675781 176.269531 Z M 75.011719 157.148438 " clip-rule="nonzero"/></clipPath><clipPath id="9ebf83e47f"><path d="M 86 152 L 92 152 L 92 159 L 86 159 Z M 86 152 " clip-rule="nonzero"/></clipPath><clipPath id="99654804e1"><path d="M 75.011719 157.148438 L 101.21875 148.019531 L 107.878906 167.140625 L 81.675781 176.269531 Z M 75.011719 157.148438 " clip-rule="nonzero"/></clipPath><clipPath id="ae34bc6705"><path d="M 75.011719 157.148438 L 101.21875 148.019531 L 107.878906 167.140625 L 81.675781 176.269531 Z M 75.011719 157.148438 " clip-rule="nonzero"/></clipPath><clipPath id="bcf0cacf8b"><path d="M 81 156 L 87 156 L 87 163 L 81 163 Z M 81 156 " clip-rule="nonzero"/></clipPath><clipPath id="4282c0af92"><path d="M 75.011719 157.148438 L 101.21875 148.019531 L 107.878906 167.140625 L 81.675781 176.269531 Z M 75.011719 157.148438 " clip-rule="nonzero"/></clipPath><clipPath id="cfb318c2d4"><path d="M 75.011719 157.148438 L 101.21875 148.019531 L 107.878906 167.140625 L 81.675781 176.269531 Z M 75.011719 157.148438 " clip-rule="nonzero"/></clipPath><clipPath id="97ddf7500a"><path d="M 78 162 L 85 162 L 85 168 L 78 168 Z M 78 162 " clip-rule="nonzero"/></clipPath><clipPath id="9aaa68fd52"><path d="M 75.011719 157.148438 L 101.21875 148.019531 L 107.878906 167.140625 L 81.675781 176.269531 Z M 75.011719 157.148438 " clip-rule="nonzero"/></clipPath><clipPath id="df6ce0bc9e"><path d="M 75.011719 157.148438 L 101.21875 148.019531 L 107.878906 167.140625 L 81.675781 176.269531 Z M 75.011719 157.148438 " clip-rule="nonzero"/></clipPath><clipPath id="da1ae22916"><path d="M 92 152 L 99 152 L 99 159 L 92 159 Z M 92 152 " clip-rule="nonzero"/></clipPath><clipPath id="6ef41cfa0a"><path d="M 75.011719 157.148438 L 101.21875 148.019531 L 107.878906 167.140625 L 81.675781 176.269531 Z M 75.011719 157.148438 " clip-rule="nonzero"/></clipPath><clipPath id="64caae1442"><path d="M 75.011719 157.148438 L 101.21875 148.019531 L 107.878906 167.140625 L 81.675781 176.269531 Z M 75.011719 157.148438 " clip-rule="nonzero"/></clipPath><clipPath id="e98632a201"><path d="M 98 155 L 105 155 L 105 162 L 98 162 Z M 98 155 " clip-rule="nonzero"/></clipPath><clipPath id="30ac592ae3"><path d="M 75.011719 157.148438 L 101.21875 148.019531 L 107.878906 167.140625 L 81.675781 176.269531 Z M 75.011719 157.148438 " clip-rule="nonzero"/></clipPath><clipPath id="05d493b725"><path d="M 75.011719 157.148438 L 101.21875 148.019531 L 107.878906 167.140625 L 81.675781 176.269531 Z M 75.011719 157.148438 " clip-rule="nonzero"/></clipPath></defs><path fill="#e3caa5" d="M 251.277344 95.003906 C 251.105469 95.003906 250.929688 95.007812 250.75 95.015625 C 244.816406 95.289062 240.5 97.265625 238.601562 100.585938 C 236.804688 103.714844 237.183594 107.894531 239.691406 112.667969 C 241.785156 116.660156 245.035156 118.859375 248.839844 118.859375 C 253.566406 118.859375 258.210938 115.5625 260.453125 110.636719 C 260.53125 109.386719 260.863281 101.488281 257.140625 97.421875 C 255.648438 95.796875 253.730469 95.003906 251.277344 95.003906 Z M 248.839844 120.949219 C 244.21875 120.949219 240.316406 118.355469 237.839844 113.640625 C 234.984375 108.199219 234.621094 103.324219 236.785156 99.542969 C 239.058594 95.582031 243.980469 93.230469 250.652344 92.925781 C 254.019531 92.769531 256.675781 93.816406 258.6875 96.015625 C 263.335938 101.097656 262.558594 110.585938 262.523438 110.988281 C 262.515625 111.101562 262.484375 111.214844 262.441406 111.320312 C 259.894531 117.078125 254.429688 120.949219 248.839844 120.949219 " fill-opacity="1" fill-rule="nonzero"/><path fill="#e3caa5" d="M 252.984375 198.84375 C 252.410156 198.84375 251.941406 198.375 251.941406 197.796875 L 251.941406 177.644531 C 227.730469 152.90625 190.484375 115.941406 186.285156 114.691406 C 182.203125 114.332031 149.394531 146.796875 120.539062 177.628906 L 120.539062 197.796875 C 120.539062 198.375 120.070312 198.84375 119.492188 198.84375 C 118.914062 198.84375 118.449219 198.375 118.449219 197.796875 L 118.449219 177.21875 C 118.449219 176.953125 118.546875 176.695312 118.730469 176.503906 C 118.882812 176.339844 134.199219 159.976562 150.046875 144.042969 C 182.527344 111.394531 185.582031 112.300781 186.882812 112.683594 C 192.96875 114.5 247.53125 170.148438 253.734375 176.484375 C 253.925781 176.679688 254.03125 176.945312 254.03125 177.21875 L 254.03125 197.796875 C 254.03125 198.375 253.5625 198.84375 252.984375 198.84375 " fill-opacity="1" fill-rule="nonzero"/><path fill="#e3caa5" d="M 262.519531 198.84375 L 108.742188 198.84375 C 108.164062 198.84375 107.699219 198.375 107.699219 197.796875 C 107.699219 197.21875 108.164062 196.75 108.742188 196.75 L 262.519531 196.75 C 263.097656 196.75 263.566406 197.21875 263.566406 197.796875 C 263.566406 198.375 263.097656 198.84375 262.519531 198.84375 " fill-opacity="1" fill-rule="nonzero"/><path fill="#e3caa5" d="M 152.25 188.660156 C 156.503906 191.96875 163.238281 196.585938 165.742188 196.746094 C 168.292969 194.96875 176.988281 170.285156 184.023438 147.136719 L 184.015625 146.640625 Z M 165.867188 198.84375 C 161.757812 198.84375 151.324219 190.605469 150.148438 189.667969 C 149.703125 189.3125 149.625 188.671875 149.964844 188.21875 L 183.980469 143.222656 L 183.652344 113.699219 C 183.644531 113.121094 184.105469 112.648438 184.6875 112.640625 C 184.6875 112.640625 184.691406 112.640625 184.695312 112.640625 C 185.265625 112.640625 185.734375 113.101562 185.742188 113.675781 L 186.074219 143.523438 C 186.074219 143.546875 186.074219 143.566406 186.074219 143.589844 L 186.113281 147.273438 C 186.117188 147.382812 186.101562 147.488281 186.070312 147.589844 C 186.03125 147.71875 182.179688 160.378906 177.90625 172.878906 C 169.03125 198.84375 167.050781 198.84375 165.867188 198.84375 " fill-opacity="1" fill-rule="nonzero"/><path fill="#e3caa5" d="M 187.476562 147.703125 C 193.847656 167.09375 203.316406 194.121094 205.875 196.722656 C 208.636719 196.105469 219.957031 185.21875 220.609375 182.542969 C 217.640625 179.777344 196.085938 156.871094 187.476562 147.703125 Z M 205.664062 198.84375 C 204.539062 198.84375 202.992188 198.84375 193.203125 171.03125 C 188.480469 157.617188 184.078125 144.027344 184.035156 143.890625 C 183.882812 143.425781 184.074219 142.917969 184.496094 142.667969 C 184.917969 142.417969 185.453125 142.492188 185.789062 142.851562 C 199.65625 157.632812 220.785156 180.027344 222.160156 181.128906 C 222.492188 181.394531 222.988281 182.023438 222.558594 183.246094 C 221.222656 187.058594 209.050781 198.84375 205.664062 198.84375 " fill-opacity="1" fill-rule="nonzero"/><path fill="#e3caa5" d="M 86.527344 198.84375 C 86.179688 198.84375 85.835938 198.667969 85.640625 198.351562 C 85.335938 197.859375 85.484375 197.214844 85.972656 196.910156 L 118.941406 176.328125 C 119.433594 176.023438 120.074219 176.175781 120.382812 176.664062 C 120.6875 177.152344 120.535156 177.800781 120.046875 178.105469 L 87.078125 198.683594 C 86.90625 198.792969 86.714844 198.84375 86.527344 198.84375 " fill-opacity="1" fill-rule="nonzero"/><g clip-path="url(#ee845d929d)"><path fill="#e3caa5" d="M 86.558594 197.621094 L 86.757812 197.621094 L 87.082031 194.96875 C 87.117188 194.683594 87.269531 194.425781 87.5 194.253906 C 87.730469 194.085938 88.023438 194.015625 88.304688 194.066406 C 88.4375 194.0625 88.535156 194.046875 88.554688 194.039062 C 88.542969 194.035156 88.648438 193.78125 88.421875 193.019531 C 88.304688 192.617188 87.527344 192.570312 87.199219 192.570312 C 85.292969 192.570312 83.109375 193.71875 82.792969 194.296875 C 82.886719 194.472656 83.191406 194.558594 83.691406 194.558594 C 84.4375 194.558594 85.199219 194.332031 85.207031 194.332031 C 85.523438 194.234375 85.867188 194.292969 86.132812 194.492188 C 86.398438 194.691406 86.558594 195 86.558594 195.332031 Z M 87.683594 199.714844 L 85.511719 199.714844 C 84.933594 199.714844 84.46875 199.246094 84.46875 198.667969 L 84.46875 196.605469 C 84.222656 196.632812 83.957031 196.652344 83.691406 196.652344 C 81.421875 196.652344 80.863281 195.285156 80.726562 194.699219 C 80.632812 194.285156 80.636719 193.648438 81.203125 192.9375 C 82.261719 191.605469 85.007812 190.480469 87.199219 190.480469 C 88.882812 190.480469 90.058594 191.1875 90.425781 192.425781 C 90.792969 193.65625 90.71875 194.625 90.210938 195.304688 C 89.929688 195.683594 89.53125 195.949219 89.054688 196.074219 L 88.722656 198.792969 C 88.660156 199.320312 88.214844 199.714844 87.683594 199.714844 " fill-opacity="1" fill-rule="nonzero"/></g><path fill="#e3caa5" d="M 284.765625 197.621094 L 284.96875 197.621094 L 285.292969 194.96875 C 285.328125 194.683594 285.480469 194.425781 285.710938 194.253906 C 285.941406 194.085938 286.234375 194.015625 286.515625 194.066406 C 286.644531 194.0625 286.746094 194.046875 286.761719 194.039062 C 286.753906 194.035156 286.859375 193.78125 286.632812 193.019531 C 286.515625 192.617188 285.738281 192.570312 285.410156 192.570312 C 283.503906 192.570312 281.320312 193.71875 281 194.296875 C 281.097656 194.472656 281.402344 194.558594 281.902344 194.558594 C 282.648438 194.558594 283.410156 194.332031 283.417969 194.332031 C 283.734375 194.234375 284.078125 194.292969 284.34375 194.492188 C 284.609375 194.691406 284.765625 195 284.765625 195.332031 Z M 285.894531 199.714844 L 283.722656 199.714844 C 283.144531 199.714844 282.675781 199.246094 282.675781 198.667969 L 282.675781 196.605469 C 282.433594 196.632812 282.167969 196.652344 281.902344 196.652344 C 279.632812 196.652344 279.074219 195.285156 278.9375 194.699219 C 278.84375 194.285156 278.847656 193.648438 279.414062 192.9375 C 280.472656 191.605469 283.21875 190.480469 285.410156 190.480469 C 287.09375 190.480469 288.269531 191.1875 288.636719 192.425781 C 289.003906 193.65625 288.929688 194.625 288.421875 195.304688 C 288.140625 195.683594 287.738281 195.949219 287.265625 196.074219 L 286.933594 198.792969 C 286.867188 199.320312 286.425781 199.714844 285.894531 199.714844 " fill-opacity="1" fill-rule="nonzero"/><path fill="#e3caa5" d="M 279.9375 192.570312 C 279.769531 192.570312 279.605469 192.53125 279.449219 192.449219 L 252.496094 178.140625 C 251.988281 177.871094 251.792969 177.238281 252.0625 176.726562 C 252.332031 176.21875 252.964844 176.023438 253.476562 176.292969 L 280.429688 190.601562 C 280.9375 190.871094 281.132812 191.503906 280.863281 192.015625 C 280.671875 192.371094 280.3125 192.570312 279.9375 192.570312 " fill-opacity="1" fill-rule="nonzero"/><path fill="#e3caa5" d="M 238.082031 93.285156 C 237.773438 93.285156 237.464844 93.148438 237.261719 92.886719 L 232.914062 87.375 C 232.558594 86.921875 232.632812 86.265625 233.085938 85.90625 C 233.542969 85.550781 234.199219 85.628906 234.554688 86.078125 L 238.902344 91.589844 C 239.261719 92.042969 239.183594 92.703125 238.730469 93.058594 C 238.539062 93.210938 238.308594 93.285156 238.082031 93.285156 " fill-opacity="1" fill-rule="nonzero"/><path fill="#e3caa5" d="M 251.121094 90.527344 C 250.558594 90.527344 250.09375 90.082031 250.078125 89.515625 L 249.789062 80.382812 C 249.769531 79.804688 250.222656 79.320312 250.796875 79.304688 C 250.8125 79.304688 250.824219 79.304688 250.832031 79.304688 C 251.394531 79.304688 251.859375 79.75 251.875 80.316406 L 252.167969 89.449219 C 252.183594 90.027344 251.734375 90.511719 251.15625 90.527344 C 251.144531 90.527344 251.132812 90.527344 251.121094 90.527344 " fill-opacity="1" fill-rule="nonzero"/><path fill="#e3caa5" d="M 232.289062 102.636719 C 232.199219 102.636719 232.105469 102.625 232.015625 102.601562 L 224.292969 100.527344 C 223.734375 100.378906 223.40625 99.800781 223.554688 99.246094 C 223.703125 98.6875 224.277344 98.355469 224.835938 98.503906 L 232.558594 100.582031 C 233.113281 100.730469 233.445312 101.304688 233.296875 101.863281 C 233.167969 102.328125 232.75 102.636719 232.289062 102.636719 " fill-opacity="1" fill-rule="nonzero"/><path fill="#e3caa5" d="M 224.5625 114.699219 C 224.125 114.699219 223.71875 114.417969 223.574219 113.980469 C 223.390625 113.429688 223.6875 112.839844 224.234375 112.65625 L 231.957031 110.09375 C 232.503906 109.914062 233.09375 110.210938 233.28125 110.757812 C 233.460938 111.304688 233.164062 111.898438 232.617188 112.082031 L 224.894531 114.644531 C 224.785156 114.679688 224.675781 114.699219 224.5625 114.699219 " fill-opacity="1" fill-rule="nonzero"/><path fill="#e3caa5" d="M 233.738281 126.484375 C 233.460938 126.484375 233.1875 126.375 232.984375 126.164062 C 232.582031 125.75 232.59375 125.085938 233.011719 124.683594 L 237.355469 120.484375 C 237.769531 120.085938 238.433594 120.09375 238.835938 120.511719 C 239.234375 120.925781 239.226562 121.589844 238.808594 121.988281 L 234.460938 126.191406 C 234.261719 126.386719 233.996094 126.484375 233.738281 126.484375 " fill-opacity="1" fill-rule="nonzero"/><path fill="#e3caa5" d="M 248.996094 135.664062 C 248.417969 135.664062 247.949219 135.195312 247.949219 134.617188 L 247.949219 125.4375 C 247.949219 124.859375 248.417969 124.390625 248.996094 124.390625 C 249.574219 124.390625 250.039062 124.859375 250.039062 125.4375 L 250.039062 134.617188 C 250.039062 135.195312 249.574219 135.664062 248.996094 135.664062 " fill-opacity="1" fill-rule="nonzero"/><path fill="#e3caa5" d="M 263.003906 131.074219 C 262.691406 131.074219 262.386719 130.933594 262.179688 130.671875 L 256.964844 123.980469 C 256.609375 123.523438 256.6875 122.867188 257.144531 122.511719 C 257.597656 122.15625 258.253906 122.238281 258.609375 122.691406 L 263.828125 129.382812 C 264.183594 129.839844 264.101562 130.496094 263.644531 130.851562 C 263.457031 131 263.230469 131.074219 263.003906 131.074219 " fill-opacity="1" fill-rule="nonzero"/><path fill="#e3caa5" d="M 260.394531 91.835938 C 260.121094 91.835938 259.847656 91.726562 259.644531 91.515625 C 259.242188 91.101562 259.253906 90.4375 259.667969 90.035156 L 265.734375 84.164062 C 266.152344 83.761719 266.8125 83.773438 267.210938 84.1875 C 267.613281 84.605469 267.601562 85.265625 267.1875 85.667969 L 261.121094 91.539062 C 260.917969 91.734375 260.65625 91.835938 260.394531 91.835938 " fill-opacity="1" fill-rule="nonzero"/><path fill="#e3caa5" d="M 266.460938 102.636719 C 265.972656 102.636719 265.535156 102.292969 265.4375 101.792969 C 265.324219 101.226562 265.691406 100.679688 266.257812 100.566406 L 276.710938 98.492188 C 277.269531 98.375 277.828125 98.746094 277.9375 99.3125 C 278.050781 99.878906 277.679688 100.429688 277.117188 100.542969 L 266.664062 102.617188 C 266.597656 102.628906 266.527344 102.636719 266.460938 102.636719 " fill-opacity="1" fill-rule="nonzero"/><path fill="#e3caa5" d="M 276.914062 114.734375 C 276.832031 114.734375 276.746094 114.722656 276.660156 114.703125 L 266.210938 112.101562 C 265.648438 111.964844 265.308594 111.398438 265.449219 110.835938 C 265.585938 110.273438 266.152344 109.933594 266.714844 110.074219 L 277.164062 112.671875 C 277.726562 112.8125 278.066406 113.378906 277.925781 113.9375 C 277.808594 114.414062 277.382812 114.734375 276.914062 114.734375 " fill-opacity="1" fill-rule="nonzero"/><path fill="#e3caa5" d="M 271.6875 122.285156 C 271.554688 122.285156 271.421875 122.257812 271.292969 122.207031 L 263.03125 118.820312 C 262.5 118.601562 262.242188 117.988281 262.460938 117.457031 C 262.679688 116.921875 263.292969 116.667969 263.824219 116.882812 L 272.082031 120.269531 C 272.617188 120.488281 272.875 121.097656 272.65625 121.632812 C 272.488281 122.039062 272.097656 122.285156 271.6875 122.285156 " fill-opacity="1" fill-rule="nonzero"/><path fill="#e3caa5" d="M 144.449219 152.246094 C 143.90625 152.246094 143.445312 151.824219 143.40625 151.273438 L 141.132812 117.925781 C 141.09375 117.347656 141.527344 116.847656 142.101562 116.808594 C 142.707031 116.78125 143.179688 117.207031 143.21875 117.78125 L 145.492188 151.128906 C 145.53125 151.707031 145.097656 152.207031 144.523438 152.246094 C 144.496094 152.246094 144.472656 152.246094 144.449219 152.246094 " fill-opacity="1" fill-rule="nonzero"/><path fill="#e3caa5" d="M 137.644531 159.230469 C 137.484375 159.230469 137.320312 159.191406 137.164062 159.109375 C 131.242188 156.023438 127.785156 152.09375 126.890625 147.425781 C 126.039062 143.003906 127.691406 138.972656 129.136719 136.46875 C 128.054688 136.613281 126.796875 136.558594 125.53125 136.019531 C 123.003906 134.945312 121.238281 132.296875 120.28125 128.140625 C 118.289062 119.5 124.171875 115.738281 126.628906 114.574219 C 125.730469 111.816406 125.988281 108.910156 127.378906 106.28125 C 129.191406 102.859375 132.785156 100.273438 136.757812 99.523438 C 138.46875 99.207031 140.003906 99.554688 141.320312 100.566406 C 143.738281 102.421875 144.777344 106.152344 145.210938 108.492188 C 147.125 107.140625 149.917969 106.285156 152.457031 106.339844 C 154.730469 106.398438 157.914062 107.171875 160.136719 110.507812 C 163.359375 115.335938 161.070312 120.550781 158.972656 123.25 C 160.910156 125.175781 161.941406 127.363281 162.042969 129.761719 C 162.253906 134.683594 158.4375 138.636719 158.273438 138.804688 C 157.871094 139.214844 157.210938 139.222656 156.796875 138.820312 C 156.386719 138.417969 156.378906 137.753906 156.78125 137.339844 C 156.8125 137.304688 160.132812 133.847656 159.957031 129.839844 C 159.863281 127.75 158.816406 125.828125 156.847656 124.128906 C 156.628906 123.945312 156.5 123.679688 156.484375 123.394531 C 156.46875 123.109375 156.570312 122.828125 156.765625 122.621094 C 156.980469 122.394531 161.941406 116.980469 158.398438 111.667969 C 156.671875 109.078125 154.183594 108.480469 152.402344 108.429688 C 149.375 108.347656 146.375 109.804688 145.289062 111.257812 C 145.027344 111.609375 144.582031 111.761719 144.160156 111.636719 C 143.742188 111.511719 143.441406 111.144531 143.410156 110.710938 C 143.402344 110.648438 142.90625 104.417969 140.042969 102.222656 C 139.210938 101.582031 138.261719 101.371094 137.140625 101.582031 C 133.78125 102.214844 130.746094 104.390625 129.226562 107.261719 C 128.335938 108.941406 127.5625 111.597656 128.925781 114.730469 C 129.042969 115.003906 129.039062 115.3125 128.914062 115.582031 C 128.792969 115.851562 128.558594 116.058594 128.277344 116.144531 C 127.953125 116.25 120.277344 118.808594 122.320312 127.671875 C 123.117188 131.136719 124.472656 133.296875 126.347656 134.097656 C 128.699219 135.097656 131.171875 133.644531 131.195312 133.628906 C 131.632812 133.367188 132.199219 133.460938 132.53125 133.851562 C 132.863281 134.246094 132.859375 134.820312 132.527344 135.207031 C 132.476562 135.265625 127.75 140.875 128.945312 147.042969 C 129.71875 151.046875 132.808594 154.480469 138.128906 157.253906 C 138.644531 157.523438 138.839844 158.152344 138.574219 158.667969 C 138.390625 159.023438 138.023438 159.230469 137.644531 159.230469 " fill-opacity="1" fill-rule="nonzero"/><path fill="#e3caa5" d="M 127.285156 170.023438 C 127.148438 170.023438 127.007812 169.996094 126.875 169.941406 C 126.769531 169.894531 116.511719 165.355469 119.730469 153.5 C 117.996094 151.929688 113.117188 146.648438 115.972656 138.859375 C 117.066406 135.875 118.734375 134.003906 120.9375 133.300781 C 124.378906 132.199219 127.734375 134.46875 127.878906 134.566406 C 128.351562 134.894531 128.472656 135.542969 128.148438 136.019531 C 127.820312 136.496094 127.171875 136.617188 126.691406 136.289062 C 126.667969 136.273438 124.03125 134.503906 121.5625 135.296875 C 120.011719 135.796875 118.792969 137.238281 117.933594 139.578125 C 115.066406 147.40625 121.277344 152.097656 121.542969 152.292969 C 121.902344 152.558594 122.054688 153.019531 121.921875 153.445312 C 118.671875 164.023438 127.324219 167.855469 127.695312 168.015625 C 128.226562 168.242188 128.472656 168.855469 128.246094 169.386719 C 128.078125 169.785156 127.691406 170.023438 127.285156 170.023438 " fill-opacity="1" fill-rule="nonzero"/><path fill="#e3caa5" d="M 221.679688 146.816406 C 221.453125 146.816406 221.230469 146.746094 221.039062 146.597656 C 220.582031 146.242188 220.5 145.585938 220.855469 145.128906 C 221.042969 144.886719 225.394531 139.09375 220.835938 132.875 C 216.429688 126.859375 211.640625 130.039062 211.4375 130.179688 C 210.996094 130.480469 210.402344 130.40625 210.050781 130 C 209.703125 129.59375 209.714844 128.996094 210.078125 128.605469 C 212.089844 126.449219 212.417969 122.574219 210.871094 119.179688 C 209.554688 116.285156 207.234375 114.621094 204.792969 114.695312 C 198.707031 114.910156 197.113281 121.410156 197.097656 121.476562 C 196.964844 122.039062 196.398438 122.386719 195.839844 122.257812 C 195.277344 122.125 194.929688 121.5625 195.0625 121 C 195.71875 118.1875 198.585938 112.820312 204.71875 112.605469 C 208.101562 112.484375 211.097656 114.621094 212.773438 118.3125 C 213.960938 120.921875 214.40625 124.355469 213.308594 127.273438 C 215.753906 126.816406 219.292969 127.230469 222.523438 131.640625 C 228.027344 139.148438 222.5625 146.34375 222.503906 146.414062 C 222.300781 146.679688 221.992188 146.816406 221.679688 146.816406 " fill-opacity="1" fill-rule="nonzero"/><path fill="#e3caa5" d="M 181.210938 198.171875 C 179.574219 196.636719 177.832031 195.203125 176.246094 193.625 C 175.21875 192.605469 173.894531 191.203125 172.316406 191.472656 C 172.316406 191.472656 172.3125 191.46875 172.3125 191.46875 C 172.3125 191.46875 172.3125 191.472656 172.3125 191.472656 C 172.265625 191.480469 172.222656 191.472656 172.175781 191.484375 C 171.597656 191.621094 171.6875 192.539062 172.292969 192.523438 C 172.339844 192.523438 172.378906 192.511719 172.425781 192.507812 L 172.425781 192.511719 C 172.457031 192.503906 172.492188 192.515625 172.523438 192.511719 C 172.535156 192.558594 172.542969 192.597656 172.558594 192.65625 C 172.636719 192.972656 173.121094 193 173.203125 192.667969 C 173.207031 192.640625 173.210938 192.617188 173.21875 192.589844 C 174.472656 192.988281 175.679688 194.644531 176.492188 195.394531 C 177.773438 196.582031 179.179688 198.191406 180.914062 198.664062 C 181.1875 198.738281 181.433594 198.378906 181.210938 198.171875 " fill-opacity="1" fill-rule="nonzero"/><path fill="#e3caa5" d="M 187.148438 197.023438 C 185.480469 194.628906 182.777344 193.425781 180.304688 192.035156 C 177.816406 190.632812 176.480469 187.789062 173.46875 187.449219 C 173.113281 187.410156 172.847656 187.875 173.03125 188.167969 C 173.46875 188.863281 173.765625 189.15625 174.546875 189.355469 C 174.875 189.4375 175 188.992188 174.714844 188.855469 C 175.714844 189.394531 176.238281 190.273438 177.132812 191.207031 C 177.835938 191.933594 178.894531 192.457031 179.753906 192.96875 C 182.132812 194.382812 184.441406 195.601562 186.5 197.5 C 186.816406 197.792969 187.425781 197.417969 187.148438 197.023438 " fill-opacity="1" fill-rule="nonzero"/><path fill="#e3caa5" d="M 195.277344 196.859375 C 195.238281 196.828125 195.203125 196.808594 195.164062 196.78125 C 195.164062 196.777344 195.167969 196.773438 195.167969 196.773438 C 189.308594 192.121094 182.285156 189.195312 176.71875 184.109375 C 176.417969 183.832031 175.84375 183.980469 175.855469 184.449219 C 175.863281 184.707031 175.933594 184.828125 176.035156 185.117188 C 176.117188 185.351562 176.371094 185.425781 176.542969 185.308594 C 181.777344 190.320312 188.671875 193.65625 194.640625 197.664062 C 195.121094 197.984375 195.734375 197.226562 195.277344 196.859375 " fill-opacity="1" fill-rule="nonzero"/><path fill="#e3caa5" d="M 201.804688 197.671875 C 201.753906 197.375 201.730469 197.308594 201.574219 197.058594 C 201.46875 196.894531 201.269531 196.847656 201.117188 196.929688 C 199.765625 195.71875 198.152344 194.832031 196.644531 193.820312 C 193.988281 192.035156 191.402344 190.164062 188.921875 188.136719 C 186.9375 186.511719 184.648438 185.144531 182.558594 183.648438 C 180.921875 182.472656 179.074219 180.527344 176.945312 180.542969 C 176.386719 180.546875 176.378906 181.367188 176.929688 181.410156 C 177.039062 181.507812 177.144531 181.605469 177.253906 181.703125 C 177.40625 181.960938 177.734375 181.855469 177.792969 181.605469 C 179.601562 182.230469 181.539062 184.164062 182.902344 185.167969 C 185.226562 186.875 187.617188 188.503906 189.871094 190.304688 C 193.359375 193.089844 197.640625 195.15625 200.890625 198.171875 C 201.292969 198.542969 201.894531 198.207031 201.804688 197.671875 " fill-opacity="1" fill-rule="nonzero"/><path fill="#e3caa5" d="M 201.550781 191.738281 C 198.25 188.542969 194.152344 186.023438 190.386719 183.417969 C 188.640625 182.214844 186.859375 180.738281 184.949219 179.816406 C 183.390625 179.0625 180.695312 178.113281 180.222656 176.242188 C 180.09375 175.730469 179.390625 175.933594 179.449219 176.429688 C 179.785156 179.21875 184.46875 180.578125 186.46875 181.933594 C 191.394531 185.269531 196.023438 189.222656 201.089844 192.320312 C 201.449219 192.539062 201.859375 192.035156 201.550781 191.738281 " fill-opacity="1" fill-rule="nonzero"/><path fill="#e3caa5" d="M 196.863281 183.085938 C 192.058594 178.542969 186.347656 175.070312 181.238281 170.882812 C 180.90625 170.613281 180.417969 171.070312 180.753906 171.351562 C 183.160156 173.382812 185.59375 175.375 188.125 177.253906 C 190.902344 179.316406 193.558594 181.734375 196.488281 183.5625 C 196.777344 183.742188 197.117188 183.324219 196.863281 183.085938 " fill-opacity="1" fill-rule="nonzero"/><path fill="#e3caa5" d="M 194.007812 176.085938 C 190.5625 173.113281 186.875 170.199219 182.988281 167.785156 C 182.441406 167.445312 181.929688 168.304688 182.476562 168.648438 C 184.648438 170.011719 186.601562 171.660156 188.65625 173.179688 C 189.742188 173.980469 190.945312 174.597656 191.925781 175.535156 C 192.464844 176.054688 192.960938 176.398438 193.644531 176.6875 C 193.976562 176.824219 194.273438 176.316406 194.007812 176.085938 " fill-opacity="1" fill-rule="nonzero"/><path fill="#e3caa5" d="M 190.617188 169.1875 C 189.878906 167.632812 188.367188 166.972656 187.058594 165.894531 C 185.761719 164.832031 184.457031 163.691406 182.871094 163.089844 C 182.261719 162.859375 181.992188 163.832031 182.597656 164.066406 C 185.476562 165.183594 187.617188 167.96875 190.066406 169.71875 C 190.40625 169.964844 190.773438 169.515625 190.617188 169.1875 " fill-opacity="1" fill-rule="nonzero"/><path fill="#e3caa5" d="M 189.4375 162.820312 C 188.136719 160.554688 184.84375 157.292969 181.972656 158.601562 C 181.582031 158.78125 181.839844 159.460938 182.242188 159.308594 C 184.722656 158.355469 187.449219 161.558594 188.839844 163.253906 C 189.109375 163.585938 189.640625 163.179688 189.4375 162.820312 " fill-opacity="1" fill-rule="nonzero"/><path fill="#e3caa5" d="M 238.660156 131.597656 C 238.609375 131.796875 238.390625 131.964844 238.246094 132.105469 C 238.015625 132.328125 237.808594 132.578125 237.601562 132.824219 C 237.175781 133.328125 236.847656 133.894531 236.90625 134.570312 C 236.933594 134.894531 237.4375 135.03125 237.507812 134.660156 C 237.628906 134.03125 238.15625 133.472656 238.558594 133.003906 C 238.863281 132.648438 239.277344 132.183594 239.253906 131.683594 C 239.238281 131.351562 238.75 131.246094 238.660156 131.597656 " fill-opacity="1" fill-rule="nonzero"/><path fill="#e3caa5" d="M 221.109375 103.628906 C 220.582031 103.363281 219.921875 103.453125 219.347656 103.457031 C 218.539062 103.464844 217.738281 103.492188 216.933594 103.527344 C 216.535156 103.542969 216.519531 104.132812 216.921875 104.148438 C 217.640625 104.179688 218.359375 104.210938 219.078125 104.214844 C 219.714844 104.222656 220.511719 104.347656 221.101562 104.050781 C 221.257812 103.972656 221.273438 103.710938 221.109375 103.628906 " fill-opacity="1" fill-rule="nonzero"/><path fill="#e3caa5" d="M 224.589844 90.28125 C 223.929688 89.800781 223.265625 89.386719 222.664062 88.828125 C 221.960938 88.179688 221.28125 87.5 220.59375 86.839844 C 220.351562 86.605469 219.988281 86.957031 220.21875 87.199219 C 221.4375 88.464844 222.667969 90.148438 224.394531 90.738281 C 224.679688 90.835938 224.804688 90.441406 224.589844 90.28125 " fill-opacity="1" fill-rule="nonzero"/><path fill="#e3caa5" d="M 243.203125 78.273438 C 243.15625 78.085938 242.859375 78.0625 242.816406 78.265625 C 242.707031 78.824219 242.710938 79.382812 242.746094 79.953125 C 242.789062 80.613281 242.917969 81.667969 242.269531 82.085938 C 241.914062 82.316406 242.207031 82.878906 242.589844 82.671875 C 244.0625 81.855469 243.511719 79.570312 243.203125 78.273438 " fill-opacity="1" fill-rule="nonzero"/><g clip-path="url(#ba8513f1f3)"><path fill="#e3caa5" d="M 261.453125 75.8125 C 261.097656 76.019531 260.957031 76.34375 260.808594 76.71875 C 260.542969 77.382812 260.433594 78.085938 260.125 78.738281 C 259.953125 79.101562 260.492188 79.425781 260.667969 79.058594 C 261.113281 78.105469 261.3125 77.066406 261.738281 76.105469 C 261.816406 75.929688 261.652344 75.695312 261.453125 75.8125 " fill-opacity="1" fill-rule="nonzero"/></g><path fill="#e3caa5" d="M 274.792969 89.171875 C 274.085938 89.578125 273.441406 90.070312 272.710938 90.445312 C 272.046875 90.789062 271.355469 91.070312 270.6875 91.398438 C 270.347656 91.570312 270.628906 92.082031 270.96875 91.914062 C 272.328125 91.261719 274.191406 90.773438 275.046875 89.433594 C 275.148438 89.277344 274.957031 89.078125 274.792969 89.171875 " fill-opacity="1" fill-rule="nonzero"/><path fill="#e3caa5" d="M 277.625 92.234375 C 277.585938 92.496094 277.429688 92.617188 277.207031 92.609375 C 276.9375 92.605469 276.9375 93.046875 277.199219 93.023438 C 277.652344 92.988281 277.921875 92.6875 277.941406 92.242188 C 277.949219 92.03125 277.652344 92.039062 277.625 92.234375 " fill-opacity="1" fill-rule="nonzero"/><path fill="#e3caa5" d="M 283.585938 106.390625 C 282.234375 106.394531 280.878906 106.398438 279.527344 106.398438 C 279.09375 106.402344 279.078125 107.074219 279.515625 107.074219 C 280.769531 107.078125 282.027344 107.078125 283.28125 107.082031 C 283.296875 107.183594 283.296875 107.28125 283.320312 107.378906 C 283.382812 107.628906 283.769531 107.652344 283.832031 107.390625 C 283.882812 107.175781 283.925781 106.964844 283.925781 106.742188 C 283.925781 106.558594 283.777344 106.390625 283.585938 106.390625 " fill-opacity="1" fill-rule="nonzero"/><path fill="#e3caa5" d="M 283.636719 112.324219 C 283.027344 112.160156 282.542969 112.238281 282.027344 111.773438 C 281.777344 111.550781 281.398438 111.910156 281.648438 112.140625 C 282.171875 112.625 282.910156 112.945312 283.628906 112.75 C 283.839844 112.695312 283.855469 112.386719 283.636719 112.324219 " fill-opacity="1" fill-rule="nonzero"/><path fill="#e3caa5" d="M 278.367188 121.515625 C 277.976562 121.507812 277.964844 122.109375 278.355469 122.121094 C 279.054688 122.140625 279.628906 122.34375 280.113281 122.855469 C 280.515625 123.28125 280.730469 123.84375 281.089844 124.304688 C 281.234375 124.492188 281.550781 124.296875 281.492188 124.082031 C 281.085938 122.601562 279.914062 121.546875 278.367188 121.515625 " fill-opacity="1" fill-rule="nonzero"/><g clip-path="url(#8f4b8d6211)"><g clip-path="url(#361b660fba)"><g clip-path="url(#45a67cf120)"><path fill="#e3caa5" d="M 98.308594 161.984375 C 97.59375 161.929688 96.625 161.652344 96.03125 161.25 C 94.574219 160.269531 92.691406 159.964844 90.902344 160.585938 C 89.117188 161.207031 87.828125 162.621094 87.296875 164.292969 C 87.082031 164.976562 86.5 165.796875 85.96875 166.28125 C 84.777344 167.375 84.28125 169.113281 84.847656 170.738281 C 85.609375 172.917969 87.996094 174.070312 90.179688 173.308594 C 90.601562 173.164062 90.980469 172.957031 91.320312 172.699219 C 91.890625 172.269531 92.785156 171.84375 93.472656 171.761719 C 93.882812 171.710938 94.292969 171.621094 94.699219 171.480469 C 95.101562 171.335938 95.480469 171.15625 95.832031 170.9375 C 96.425781 170.574219 97.386719 170.351562 98.105469 170.335938 C 98.527344 170.328125 98.957031 170.25 99.375 170.105469 C 101.558594 169.34375 102.714844 166.960938 101.953125 164.777344 C 101.390625 163.152344 99.921875 162.101562 98.308594 161.984375 " fill-opacity="1" fill-rule="nonzero"/></g></g></g><g clip-path="url(#9ebf83e47f)"><g clip-path="url(#99654804e1)"><g clip-path="url(#ae34bc6705)"><path fill="#e3caa5" d="M 90.125 158.347656 C 91.492188 157.871094 92.152344 156.195312 91.597656 154.605469 C 91.042969 153.011719 89.484375 152.109375 88.113281 152.585938 C 86.746094 153.0625 86.089844 154.738281 86.644531 156.328125 C 87.199219 157.921875 88.757812 158.824219 90.125 158.347656 " fill-opacity="1" fill-rule="nonzero"/></g></g></g><g clip-path="url(#bcf0cacf8b)"><g clip-path="url(#4282c0af92)"><g clip-path="url(#cfb318c2d4)"><path fill="#e3caa5" d="M 86.25 161.265625 C 87.195312 160.167969 86.929688 158.386719 85.652344 157.285156 C 84.375 156.1875 82.570312 156.179688 81.625 157.277344 C 80.679688 158.371094 80.945312 160.152344 82.222656 161.253906 C 83.5 162.355469 85.304688 162.359375 86.25 161.265625 " fill-opacity="1" fill-rule="nonzero"/></g></g></g><g clip-path="url(#97ddf7500a)"><g clip-path="url(#9aaa68fd52)"><g clip-path="url(#df6ce0bc9e)"><path fill="#e3caa5" d="M 84.371094 165.703125 C 84.644531 164.28125 83.519531 162.871094 81.863281 162.558594 C 80.203125 162.242188 78.640625 163.136719 78.367188 164.558594 C 78.097656 165.980469 79.222656 167.390625 80.878906 167.703125 C 82.535156 168.019531 84.101562 167.121094 84.371094 165.703125 " fill-opacity="1" fill-rule="nonzero"/></g></g></g><g clip-path="url(#da1ae22916)"><g clip-path="url(#6ef41cfa0a)"><g clip-path="url(#64caae1442)"><path fill="#e3caa5" d="M 94.96875 158.226562 C 96.390625 158.496094 97.800781 157.371094 98.117188 155.714844 C 98.433594 154.0625 97.539062 152.5 96.117188 152.226562 C 94.695312 151.957031 93.285156 153.082031 92.96875 154.738281 C 92.652344 156.394531 93.546875 157.957031 94.96875 158.226562 " fill-opacity="1" fill-rule="nonzero"/></g></g></g><g clip-path="url(#e98632a201)"><g clip-path="url(#30ac592ae3)"><g clip-path="url(#05d493b725)"><path fill="#e3caa5" d="M 103.191406 155.910156 C 102.097656 154.964844 100.3125 155.234375 99.210938 156.511719 C 98.109375 157.789062 98.101562 159.589844 99.199219 160.535156 C 100.292969 161.480469 102.078125 161.210938 103.179688 159.933594 C 104.285156 158.65625 104.289062 156.855469 103.191406 155.910156 " fill-opacity="1" fill-rule="nonzero"/></g></g></g></svg>