<svg width="20" height="20" viewBox="0 0 20 20" fill="none" xmlns="http://www.w3.org/2000/svg">
<path d="M9.16669 12.5V10.8333C8.50365 10.8333 7.86776 10.5699 7.39892 10.1011C6.93008 9.63225 6.66669 8.99636 6.66669 8.33332C6.66669 7.67028 6.93008 7.0344 7.39892 6.56556C7.86776 6.09672 8.50365 5.83332 9.16669 5.83332V4.99999C9.16669 4.77898 9.25448 4.56701 9.41076 4.41073C9.56705 4.25445 9.77901 4.16666 10 4.16666C10.221 4.16666 10.433 4.25445 10.5893 4.41073C10.7456 4.56701 10.8334 4.77898 10.8334 4.99999V5.83332H10.8517C11.5099 5.83332 12.1411 6.09478 12.6065 6.56019C13.0719 7.02559 13.3334 7.65681 13.3334 8.31499C13.3334 8.536 13.2456 8.74797 13.0893 8.90425C12.933 9.06053 12.721 9.14832 12.5 9.14832C12.279 9.14832 12.067 9.06053 11.9108 8.90425C11.7545 8.74797 11.6667 8.536 11.6667 8.31499C11.6667 8.09884 11.5808 7.89154 11.428 7.7387C11.2751 7.58586 11.0678 7.49999 10.8517 7.49999H10.8334V9.16666C11.4964 9.16666 12.1323 9.43005 12.6011 9.89889C13.07 10.3677 13.3334 11.0036 13.3334 11.6667C13.3334 12.3297 13.07 12.9656 12.6011 13.4344C12.1323 13.9033 11.4964 14.1667 10.8334 14.1667V15C10.8334 15.221 10.7456 15.433 10.5893 15.5892C10.433 15.7455 10.221 15.8333 10 15.8333C9.77901 15.8333 9.56705 15.7455 9.41076 15.5892C9.25448 15.433 9.16669 15.221 9.16669 15V14.1667H9.12419C8.47242 14.1667 7.84734 13.9077 7.38647 13.4469C6.9256 12.986 6.66669 12.3609 6.66669 11.7092C6.66669 11.4881 6.75448 11.2762 6.91076 11.1199C7.06705 10.9636 7.27901 10.8758 7.50002 10.8758C7.72103 10.8758 7.933 10.9636 8.08928 11.1199C8.24556 11.2762 8.33335 11.4881 8.33335 11.7092C8.33357 11.9188 8.41696 12.1199 8.56523 12.2681C8.71349 12.4164 8.91451 12.4998 9.12419 12.5H9.16669ZM10.8334 12.5C11.0544 12.5 11.2663 12.4122 11.4226 12.2559C11.5789 12.0996 11.6667 11.8877 11.6667 11.6667C11.6667 11.4456 11.5789 11.2337 11.4226 11.0774C11.2663 10.9211 11.0544 10.8333 10.8334 10.8333V12.5ZM9.16669 7.49999C8.94567 7.49999 8.73371 7.58779 8.57743 7.74407C8.42115 7.90035 8.33335 8.11231 8.33335 8.33332C8.33335 8.55434 8.42115 8.7663 8.57743 8.92258C8.73371 9.07886 8.94567 9.16666 9.16669 9.16666V7.49999ZM10 18.3333C5.39752 18.3333 1.66669 14.6025 1.66669 9.99999C1.66669 5.39749 5.39752 1.66666 10 1.66666C14.6025 1.66666 18.3334 5.39749 18.3334 9.99999C18.3334 14.6025 14.6025 18.3333 10 18.3333ZM10 16.6667C11.7681 16.6667 13.4638 15.9643 14.7141 14.714C15.9643 13.4638 16.6667 11.7681 16.6667 9.99999C16.6667 8.23188 15.9643 6.53619 14.7141 5.28594C13.4638 4.0357 11.7681 3.33332 10 3.33332C8.23191 3.33332 6.53622 4.0357 5.28598 5.28594C4.03573 6.53619 3.33335 8.23188 3.33335 9.99999C3.33335 11.7681 4.03573 13.4638 5.28598 14.714C6.53622 15.9643 8.23191 16.6667 10 16.6667Z" fill="#7B6250"/>
</svg>
