<svg width="25" height="25" viewBox="0 0 30 30" fill="none" xmlns="http://www.w3.org/2000/svg">
<path d="M14.5 2.5C7.876 2.5 2.5 7.876 2.5 14.5C2.5 21.124 7.876 26.5 14.5 26.5H20.5V24.1H14.5C9.292 24.1 4.9 19.708 4.9 14.5C4.9 9.292 9.292 4.9 14.5 4.9C19.708 4.9 24.1 9.292 24.1 14.5V16.216C24.1 17.164 23.248 18.1 22.3 18.1C21.352 18.1 20.5 17.164 20.5 16.216V14.5C20.5 11.188 17.812 8.5 14.5 8.5C11.188 8.5 8.5 11.188 8.5 14.5C8.5 17.812 11.188 20.5 14.5 20.5C16.156 20.5 17.668 19.828 18.748 18.736C19.528 19.804 20.872 20.5 22.3 20.5C24.664 20.5 26.5 18.58 26.5 16.216V14.5C26.5 7.876 21.124 2.5 14.5 2.5ZM14.5 18.1C12.508 18.1 10.9 16.492 10.9 14.5C10.9 12.508 12.508 10.9 14.5 10.9C16.492 10.9 18.1 12.508 18.1 14.5C18.1 16.492 16.492 18.1 14.5 18.1Z" fill="#7B6250"/>
</svg>
