<svg width="current" height="current" viewBox="0 0 30 30" fill="none" xmlns="http://www.w3.org/2000/svg">
<path d="M8.75 3.75H6.25C5.58696 3.75 4.95107 4.01339 4.48223 4.48223C4.01339 4.95107 3.75 5.58696 3.75 6.25V8.75M21.25 3.75H23.75C24.413 3.75 25.0489 4.01339 25.5178 4.48223C25.9866 4.95107 26.25 5.58696 26.25 6.25V8.75M20 10V12.5M10 10V12.5M11.25 20C11.25 20 12.5 21.25 15 21.25C17.5 21.25 18.75 20 18.75 20M15 10V16.25H13.75M8.75 26.25H6.25C5.58696 26.25 4.95107 25.9866 4.48223 25.5178C4.01339 25.0489 3.75 24.413 3.75 23.75V21.25M21.25 26.25H23.75C24.413 26.25 25.0489 25.9866 25.5178 25.5178C25.9866 25.0489 26.25 24.413 26.25 23.75V21.25" stroke="#7B6250" stroke-width="1.875" stroke-linecap="round" stroke-linejoin="round"/>
</svg>
