<svg width="14" height="18" viewBox="0 0 14 18" fill="none" xmlns="http://www.w3.org/2000/svg">
<path d="M6.2806 17.4191C0.983281 10.1052 0 9.35462 0 6.66667C0 2.98476 3.13399 0 7 0C10.866 0 14 2.98476 14 6.66667C14 9.35462 13.0167 10.1052 7.7194 17.4191C7.37177 17.8974 6.6282 17.8973 6.2806 17.4191ZM7 9.44444C8.61084 9.44444 9.91667 8.2008 9.91667 6.66667C9.91667 5.13253 8.61084 3.88889 7 3.88889C5.38916 3.88889 4.08333 5.13253 4.08333 6.66667C4.08333 8.2008 5.38916 9.44444 7 9.44444Z" fill="#7B6250"/>
</svg>
