<svg xmlns="http://www.w3.org/2000/svg" xmlns:xlink="http://www.w3.org/1999/xlink" width="current" zoomAndPan="magnify" viewBox="current" height="current" preserveAspectRatio="xMidYMid meet" version="1.0"><defs><g/><clipPath id="5c16102096"><path d="M 340 78 L 377 78 L 377 140 L 340 140 Z M 340 78 " clip-rule="nonzero"/></clipPath><clipPath id="05f0b7bc00"><path d="M 322.476562 89.753906 L 360.347656 75.535156 L 379.042969 125.328125 L 341.171875 139.546875 Z M 322.476562 89.753906 " clip-rule="nonzero"/></clipPath><clipPath id="9ecbdd6dbf"><path d="M 322.476562 89.753906 L 360.347656 75.535156 L 379.042969 125.328125 L 341.171875 139.546875 Z M 322.476562 89.753906 " clip-rule="nonzero"/></clipPath><clipPath id="e669d9ae0e"><path d="M 150 91 L 164 91 L 164 101 L 150 101 Z M 150 91 " clip-rule="nonzero"/></clipPath><clipPath id="d2575cb895"><path d="M 149.84375 83.917969 L 168.828125 88.269531 L 165.644531 102.144531 L 146.660156 97.789062 Z M 149.84375 83.917969 " clip-rule="nonzero"/></clipPath><clipPath id="5dca01b18c"><path d="M 149.84375 83.917969 L 168.828125 88.269531 L 165.644531 102.144531 L 146.660156 97.789062 Z M 149.84375 83.917969 " clip-rule="nonzero"/></clipPath><clipPath id="1eafb8b398"><path d="M 157 86 L 161 86 L 161 91 L 157 91 Z M 157 86 " clip-rule="nonzero"/></clipPath><clipPath id="ea4fbbe1e5"><path d="M 149.84375 83.917969 L 168.828125 88.269531 L 165.644531 102.144531 L 146.660156 97.789062 Z M 149.84375 83.917969 " clip-rule="nonzero"/></clipPath><clipPath id="58373bfd34"><path d="M 149.84375 83.917969 L 168.828125 88.269531 L 165.644531 102.144531 L 146.660156 97.789062 Z M 149.84375 83.917969 " clip-rule="nonzero"/></clipPath><clipPath id="f74b68cc3f"><path d="M 152 86 L 157 86 L 157 91 L 152 91 Z M 152 86 " clip-rule="nonzero"/></clipPath><clipPath id="322c063167"><path d="M 149.84375 83.917969 L 168.828125 88.269531 L 165.644531 102.144531 L 146.660156 97.789062 Z M 149.84375 83.917969 " clip-rule="nonzero"/></clipPath><clipPath id="7fa6e7502d"><path d="M 149.84375 83.917969 L 168.828125 88.269531 L 165.644531 102.144531 L 146.660156 97.789062 Z M 149.84375 83.917969 " clip-rule="nonzero"/></clipPath><clipPath id="72ee961a10"><path d="M 148 89 L 153 89 L 153 94 L 148 94 Z M 148 89 " clip-rule="nonzero"/></clipPath><clipPath id="bc51899f13"><path d="M 149.84375 83.917969 L 168.828125 88.269531 L 165.644531 102.144531 L 146.660156 97.789062 Z M 149.84375 83.917969 " clip-rule="nonzero"/></clipPath><clipPath id="29873ca420"><path d="M 149.84375 83.917969 L 168.828125 88.269531 L 165.644531 102.144531 L 146.660156 97.789062 Z M 149.84375 83.917969 " clip-rule="nonzero"/></clipPath><clipPath id="359c118535"><path d="M 160 88 L 165 88 L 165 93 L 160 93 Z M 160 88 " clip-rule="nonzero"/></clipPath><clipPath id="7c7772b97c"><path d="M 149.84375 83.917969 L 168.828125 88.269531 L 165.644531 102.144531 L 146.660156 97.789062 Z M 149.84375 83.917969 " clip-rule="nonzero"/></clipPath><clipPath id="06c60dd8ac"><path d="M 149.84375 83.917969 L 168.828125 88.269531 L 165.644531 102.144531 L 146.660156 97.789062 Z M 149.84375 83.917969 " clip-rule="nonzero"/></clipPath><clipPath id="8cecf58c2d"><path d="M 162 92 L 168 92 L 168 97 L 162 97 Z M 162 92 " clip-rule="nonzero"/></clipPath><clipPath id="38ba20e270"><path d="M 149.84375 83.917969 L 168.828125 88.269531 L 165.644531 102.144531 L 146.660156 97.789062 Z M 149.84375 83.917969 " clip-rule="nonzero"/></clipPath><clipPath id="f3bc9a3693"><path d="M 149.84375 83.917969 L 168.828125 88.269531 L 165.644531 102.144531 L 146.660156 97.789062 Z M 149.84375 83.917969 " clip-rule="nonzero"/></clipPath></defs><g fill="#7b6250" fill-opacity="1"><g transform="translate(115.623223, 131.471669)"><g><path d="M 26.015625 -30.5625 C 28.097656 -30.5625 29.910156 -30.25 31.453125 -29.625 C 33.003906 -29 34.179688 -28.140625 34.984375 -27.046875 C 35.796875 -25.960938 36.203125 -24.71875 36.203125 -23.3125 C 36.203125 -22.519531 36.097656 -21.785156 35.890625 -21.109375 C 35.003906 -18.015625 32.445312 -16.054688 28.21875 -15.234375 C 29.6875 -14.804688 30.847656 -14.09375 31.703125 -13.09375 C 32.566406 -12.101562 33 -10.875 33 -9.40625 C 33 -8.726562 32.875 -7.929688 32.625 -7.015625 C 31.957031 -4.628906 30.601562 -2.863281 28.5625 -1.71875 C 26.53125 -0.570312 23.648438 0 19.921875 0 L 0.828125 0 C 0.179688 0 -0.3125 -0.101562 -0.65625 -0.3125 C -1.007812 -0.53125 -1.1875 -0.820312 -1.1875 -1.1875 C -1.1875 -1.375 -1.144531 -1.578125 -1.0625 -1.796875 C -0.9375 -2.128906 -0.734375 -2.382812 -0.453125 -2.5625 C -0.179688 -2.75 -0.015625 -2.859375 0.046875 -2.890625 C 0.535156 -3.191406 0.929688 -3.503906 1.234375 -3.828125 C 1.546875 -4.148438 1.804688 -4.679688 2.015625 -5.421875 L 7.625 -25.1875 C 7.738281 -25.59375 7.796875 -25.976562 7.796875 -26.34375 C 7.796875 -26.675781 7.742188 -26.957031 7.640625 -27.1875 C 7.535156 -27.414062 7.390625 -27.6875 7.203125 -28 C 6.929688 -28.394531 6.796875 -28.710938 6.796875 -28.953125 C 6.796875 -29.046875 6.828125 -29.21875 6.890625 -29.46875 C 7.003906 -29.863281 7.269531 -30.144531 7.6875 -30.3125 C 8.101562 -30.476562 8.738281 -30.5625 9.59375 -30.5625 Z M 23.953125 -22.171875 C 24.171875 -22.835938 24.28125 -23.460938 24.28125 -24.046875 C 24.28125 -25.640625 23.375 -26.4375 21.5625 -26.4375 L 19.5 -26.4375 L 17.078125 -17.84375 L 19.09375 -17.84375 C 20.375 -17.84375 21.390625 -18.15625 22.140625 -18.78125 C 22.890625 -19.414062 23.492188 -20.546875 23.953125 -22.171875 Z M 20.609375 -8.671875 C 20.816406 -9.410156 20.921875 -10.082031 20.921875 -10.6875 C 20.921875 -12.34375 19.972656 -13.171875 18.078125 -13.171875 L 15.78125 -13.171875 L 13.171875 -4.125 L 15.515625 -4.125 C 16.828125 -4.125 17.878906 -4.453125 18.671875 -5.109375 C 19.472656 -5.773438 20.117188 -6.960938 20.609375 -8.671875 Z M 20.609375 -8.671875 "/></g></g></g><g fill="#ad8b73" fill-opacity="1"><g transform="translate(152.69327, 131.471669)"><g><path d="M 15.5625 -24.5 C 19.445312 -24.5 22.257812 -23.878906 24 -22.640625 C 25.738281 -21.398438 26.609375 -19.816406 26.609375 -17.890625 C 26.609375 -17.316406 26.550781 -16.785156 26.4375 -16.296875 C 25.976562 -14.273438 24.695312 -12.828125 22.59375 -11.953125 C 20.5 -11.078125 18.03125 -10.640625 15.1875 -10.640625 C 13.75 -10.640625 12.40625 -10.734375 11.15625 -10.921875 C 11.125 -9.328125 11.550781 -8.207031 12.4375 -7.5625 C 13.320312 -6.925781 14.5625 -6.609375 16.15625 -6.609375 C 16.882812 -6.609375 17.585938 -6.691406 18.265625 -6.859375 C 18.941406 -7.023438 19.796875 -7.28125 20.828125 -7.625 C 21.691406 -7.925781 22.273438 -8.078125 22.578125 -8.078125 C 22.910156 -8.078125 23.078125 -7.878906 23.078125 -7.484375 C 23.109375 -6.410156 22.710938 -5.285156 21.890625 -4.109375 C 21.066406 -2.929688 19.84375 -1.925781 18.21875 -1.09375 C 16.59375 -0.269531 14.632812 0.140625 12.34375 0.140625 C 8.945312 0.140625 6.160156 -0.710938 3.984375 -2.421875 C 1.816406 -4.140625 0.734375 -6.632812 0.734375 -9.90625 C 0.734375 -10.832031 0.851562 -11.90625 1.09375 -13.125 C 1.863281 -16.882812 3.539062 -19.71875 6.125 -21.625 C 8.707031 -23.539062 11.851562 -24.5 15.5625 -24.5 Z M 11.46875 -13.671875 C 11.59375 -13.640625 11.765625 -13.625 11.984375 -13.625 C 13.265625 -13.625 14.238281 -14.21875 14.90625 -15.40625 C 15.582031 -16.601562 15.90625 -17.9375 15.875 -19.40625 C 15.84375 -20.269531 15.597656 -20.703125 15.140625 -20.703125 C 14.804688 -20.703125 14.410156 -20.429688 13.953125 -19.890625 C 13.492188 -19.359375 13.039062 -18.554688 12.59375 -17.484375 C 12.15625 -16.410156 11.78125 -15.140625 11.46875 -13.671875 Z M 11.46875 -13.671875 "/></g></g></g><g fill="#ad8b73" fill-opacity="1"><g transform="translate(180.544919, 131.471669)"><g><path d="M 16.390625 -24.28125 C 19.898438 -24.28125 22.710938 -23.628906 24.828125 -22.328125 C 26.941406 -21.023438 28 -19.046875 28 -16.390625 C 28 -15.378906 27.8125 -14.226562 27.4375 -12.9375 L 25.5625 -6.609375 C 25.53125 -6.484375 25.515625 -6.332031 25.515625 -6.15625 C 25.515625 -5.664062 25.710938 -5.421875 26.109375 -5.421875 C 26.472656 -5.421875 26.785156 -5.578125 27.046875 -5.890625 C 27.304688 -6.210938 27.484375 -6.375 27.578125 -6.375 C 27.734375 -6.375 27.863281 -6.265625 27.96875 -6.046875 C 28.070312 -5.835938 28.125 -5.597656 28.125 -5.328125 C 28.15625 -4.492188 27.84375 -3.648438 27.1875 -2.796875 C 26.53125 -1.941406 25.648438 -1.238281 24.546875 -0.6875 C 23.453125 -0.132812 22.242188 0.140625 20.921875 0.140625 C 19.335938 0.140625 17.976562 -0.148438 16.84375 -0.734375 C 15.707031 -1.316406 14.925781 -2.171875 14.5 -3.296875 C 13.582031 -2.203125 12.492188 -1.351562 11.234375 -0.75 C 9.984375 -0.15625 8.640625 0.140625 7.203125 0.140625 C 5.578125 0.140625 4.210938 -0.171875 3.109375 -0.796875 C 2.015625 -1.429688 1.195312 -2.242188 0.65625 -3.234375 C 0.125 -4.234375 -0.140625 -5.28125 -0.140625 -6.375 C -0.140625 -6.863281 -0.09375 -7.335938 0 -7.796875 C 0.488281 -9.910156 1.550781 -11.503906 3.1875 -12.578125 C 4.820312 -13.648438 6.773438 -14.1875 9.046875 -14.1875 C 11.578125 -14.1875 14.066406 -13.785156 16.515625 -12.984375 L 17.671875 -16.015625 C 18.066406 -17.296875 18.265625 -18.289062 18.265625 -19 C 18.234375 -19.726562 17.988281 -20.273438 17.53125 -20.640625 C 17.070312 -21.015625 16.367188 -21.203125 15.421875 -21.203125 C 15.597656 -20.710938 15.6875 -20.207031 15.6875 -19.6875 C 15.6875 -18.550781 15.257812 -17.570312 14.40625 -16.75 C 13.550781 -15.925781 12.328125 -15.515625 10.734375 -15.515625 C 9.234375 -15.515625 8.0625 -15.84375 7.21875 -16.5 C 6.382812 -17.15625 5.96875 -17.972656 5.96875 -18.953125 C 5.96875 -20.484375 6.820312 -21.753906 8.53125 -22.765625 C 10.25 -23.773438 12.867188 -24.28125 16.390625 -24.28125 Z M 13.8125 -10.375 C 12.957031 -10.375 12.257812 -10.039062 11.71875 -9.375 C 11.1875 -8.71875 10.921875 -8.007812 10.921875 -7.25 C 10.921875 -6.757812 11.035156 -6.359375 11.265625 -6.046875 C 11.492188 -5.742188 11.820312 -5.59375 12.25 -5.59375 C 12.644531 -5.59375 13.078125 -5.753906 13.546875 -6.078125 C 14.023438 -6.398438 14.375 -6.882812 14.59375 -7.53125 L 15.5625 -10.234375 C 15.039062 -10.328125 14.457031 -10.375 13.8125 -10.375 Z M 13.8125 -10.375 "/></g></g></g><g fill="#ad8b73" fill-opacity="1"><g transform="translate(212.709656, 131.471669)"><g><path d="M 22.53125 -24.28125 C 24.25 -24.28125 25.617188 -23.757812 26.640625 -22.71875 C 27.660156 -21.675781 28.171875 -20.390625 28.171875 -18.859375 C 28.171875 -18.273438 28.113281 -17.738281 28 -17.25 C 27.6875 -16 27.101562 -15.035156 26.25 -14.359375 C 25.394531 -13.691406 24.367188 -13.359375 23.171875 -13.359375 C 22.015625 -13.359375 21.132812 -13.628906 20.53125 -14.171875 C 19.9375 -14.722656 19.410156 -15.460938 18.953125 -16.390625 C 18.703125 -16.898438 18.46875 -17.273438 18.25 -17.515625 C 18.039062 -17.765625 17.800781 -17.890625 17.53125 -17.890625 C 17.226562 -17.890625 16.960938 -17.765625 16.734375 -17.515625 C 16.503906 -17.273438 16.296875 -16.851562 16.109375 -16.25 L 12.578125 -4.765625 C 12.515625 -4.617188 12.484375 -4.390625 12.484375 -4.078125 C 12.484375 -3.679688 12.597656 -3.351562 12.828125 -3.09375 C 13.054688 -2.832031 13.367188 -2.582031 13.765625 -2.34375 C 14.128906 -2.09375 14.375 -1.890625 14.5 -1.734375 C 14.625 -1.585938 14.671875 -1.390625 14.640625 -1.140625 C 14.578125 -0.742188 14.351562 -0.453125 13.96875 -0.265625 C 13.59375 -0.0859375 12.941406 0 12.015625 0 L 0.28125 0 C -0.519531 0 -1.09375 -0.128906 -1.4375 -0.390625 C -1.789062 -0.648438 -1.921875 -0.992188 -1.828125 -1.421875 C -1.710938 -1.785156 -1.394531 -2.109375 -0.875 -2.390625 C -0.414062 -2.628906 -0.0351562 -2.914062 0.265625 -3.25 C 0.578125 -3.59375 0.84375 -4.128906 1.0625 -4.859375 L 5.140625 -18.125 C 5.203125 -18.28125 5.234375 -18.492188 5.234375 -18.765625 C 5.234375 -19.109375 5.160156 -19.367188 5.015625 -19.546875 C 4.878906 -19.734375 4.660156 -19.960938 4.359375 -20.234375 C 4.054688 -20.484375 3.84375 -20.695312 3.71875 -20.875 C 3.59375 -21.0625 3.578125 -21.304688 3.671875 -21.609375 C 3.859375 -22.316406 4.820312 -22.9375 6.5625 -23.46875 C 8.300781 -24.007812 10.117188 -24.28125 12.015625 -24.28125 C 13.273438 -24.28125 14.316406 -23.992188 15.140625 -23.421875 C 15.972656 -22.859375 16.507812 -22.054688 16.75 -21.015625 C 18.21875 -23.191406 20.144531 -24.28125 22.53125 -24.28125 Z M 22.53125 -24.28125 "/></g></g></g><g fill="#7b6250" fill-opacity="1"><g transform="translate(241.429624, 131.471669)"><g><path d="M 49.28125 -30.5625 C 49.925781 -30.5625 50.425781 -30.460938 50.78125 -30.265625 C 51.132812 -30.066406 51.3125 -29.785156 51.3125 -29.421875 C 51.3125 -29.265625 51.265625 -29.0625 51.171875 -28.8125 C 51.078125 -28.539062 50.945312 -28.335938 50.78125 -28.203125 C 50.613281 -28.066406 50.359375 -27.890625 50.015625 -27.671875 C 49.523438 -27.398438 49.132812 -27.09375 48.84375 -26.75 C 48.5625 -26.414062 48.3125 -25.894531 48.09375 -25.1875 L 42.5 -5.46875 C 42.375 -5.0625 42.3125 -4.675781 42.3125 -4.3125 C 42.3125 -3.976562 42.363281 -3.695312 42.46875 -3.46875 C 42.570312 -3.238281 42.71875 -2.96875 42.90625 -2.65625 C 43.03125 -2.507812 43.132812 -2.347656 43.21875 -2.171875 C 43.3125 -2.003906 43.359375 -1.832031 43.359375 -1.65625 C 43.359375 -1.59375 43.332031 -1.4375 43.28125 -1.1875 C 43.15625 -0.789062 42.867188 -0.5 42.421875 -0.3125 C 41.984375 -0.132812 41.347656 -0.046875 40.515625 -0.046875 L 29.734375 -0.046875 C 29.085938 -0.046875 28.585938 -0.148438 28.234375 -0.359375 C 27.890625 -0.578125 27.71875 -0.867188 27.71875 -1.234375 C 27.71875 -1.421875 27.765625 -1.617188 27.859375 -1.828125 C 27.953125 -2.046875 28.082031 -2.238281 28.25 -2.40625 C 28.414062 -2.570312 28.566406 -2.691406 28.703125 -2.765625 C 28.835938 -2.847656 28.9375 -2.921875 29 -2.984375 C 29.488281 -3.253906 29.882812 -3.554688 30.1875 -3.890625 C 30.5 -4.234375 30.757812 -4.757812 30.96875 -5.46875 L 34.46875 -17.84375 L 22.578125 -3.125 C 21.597656 -1.925781 20.804688 -1.101562 20.203125 -0.65625 C 19.609375 -0.21875 18.929688 0 18.171875 0 C 17.441406 0 16.867188 -0.234375 16.453125 -0.703125 C 16.035156 -1.179688 15.660156 -1.988281 15.328125 -3.125 L 11.015625 -17.296875 L 7.625 -5.421875 C 7.5 -5.015625 7.4375 -4.628906 7.4375 -4.265625 C 7.4375 -3.898438 7.488281 -3.59375 7.59375 -3.34375 C 7.695312 -3.101562 7.859375 -2.84375 8.078125 -2.5625 C 8.347656 -2.164062 8.484375 -1.847656 8.484375 -1.609375 C 8.484375 -1.546875 8.453125 -1.390625 8.390625 -1.140625 C 8.273438 -0.710938 8 -0.414062 7.5625 -0.25 C 7.132812 -0.0820312 6.492188 0 5.640625 0 L 1.828125 0 C 1.191406 0 0.695312 -0.101562 0.34375 -0.3125 C -0.0078125 -0.53125 -0.1875 -0.820312 -0.1875 -1.1875 C -0.1875 -1.375 -0.140625 -1.578125 -0.046875 -1.796875 C 0.078125 -2.128906 0.273438 -2.382812 0.546875 -2.5625 C 0.828125 -2.75 1 -2.859375 1.0625 -2.890625 C 1.550781 -3.191406 1.945312 -3.503906 2.25 -3.828125 C 2.550781 -4.148438 2.8125 -4.679688 3.03125 -5.421875 L 8.625 -25.234375 L 7.890625 -27.671875 C 7.734375 -28.128906 7.65625 -28.570312 7.65625 -29 C 7.65625 -29.550781 7.832031 -29.945312 8.1875 -30.1875 C 8.539062 -30.4375 9.085938 -30.5625 9.828125 -30.5625 L 16.9375 -30.5625 C 17.851562 -30.5625 18.53125 -30.363281 18.96875 -29.96875 C 19.414062 -29.570312 19.773438 -28.882812 20.046875 -27.90625 L 24.640625 -12.671875 L 37.078125 -28.125 C 37.867188 -29.101562 38.644531 -29.753906 39.40625 -30.078125 C 40.175781 -30.398438 41.191406 -30.5625 42.453125 -30.5625 Z M 49.28125 -30.5625 "/></g></g></g><g fill="#ad8b73" fill-opacity="1"><g transform="translate(291.070951, 131.471669)"><g><path d="M 15.5625 -24.5 C 19.445312 -24.5 22.257812 -23.878906 24 -22.640625 C 25.738281 -21.398438 26.609375 -19.816406 26.609375 -17.890625 C 26.609375 -17.316406 26.550781 -16.785156 26.4375 -16.296875 C 25.976562 -14.273438 24.695312 -12.828125 22.59375 -11.953125 C 20.5 -11.078125 18.03125 -10.640625 15.1875 -10.640625 C 13.75 -10.640625 12.40625 -10.734375 11.15625 -10.921875 C 11.125 -9.328125 11.550781 -8.207031 12.4375 -7.5625 C 13.320312 -6.925781 14.5625 -6.609375 16.15625 -6.609375 C 16.882812 -6.609375 17.585938 -6.691406 18.265625 -6.859375 C 18.941406 -7.023438 19.796875 -7.28125 20.828125 -7.625 C 21.691406 -7.925781 22.273438 -8.078125 22.578125 -8.078125 C 22.910156 -8.078125 23.078125 -7.878906 23.078125 -7.484375 C 23.109375 -6.410156 22.710938 -5.285156 21.890625 -4.109375 C 21.066406 -2.929688 19.84375 -1.925781 18.21875 -1.09375 C 16.59375 -0.269531 14.632812 0.140625 12.34375 0.140625 C 8.945312 0.140625 6.160156 -0.710938 3.984375 -2.421875 C 1.816406 -4.140625 0.734375 -6.632812 0.734375 -9.90625 C 0.734375 -10.832031 0.851562 -11.90625 1.09375 -13.125 C 1.863281 -16.882812 3.539062 -19.71875 6.125 -21.625 C 8.707031 -23.539062 11.851562 -24.5 15.5625 -24.5 Z M 11.46875 -13.671875 C 11.59375 -13.640625 11.765625 -13.625 11.984375 -13.625 C 13.265625 -13.625 14.238281 -14.21875 14.90625 -15.40625 C 15.582031 -16.601562 15.90625 -17.9375 15.875 -19.40625 C 15.84375 -20.269531 15.597656 -20.703125 15.140625 -20.703125 C 14.804688 -20.703125 14.410156 -20.429688 13.953125 -19.890625 C 13.492188 -19.359375 13.039062 -18.554688 12.59375 -17.484375 C 12.15625 -16.410156 11.78125 -15.140625 11.46875 -13.671875 Z M 11.46875 -13.671875 "/></g></g></g><g fill="#ad8b73" fill-opacity="1"><g transform="translate(318.922599, 131.471669)"><g><path d="M 14.640625 -33.90625 C 16.410156 -33.90625 17.71875 -33.566406 18.5625 -32.890625 C 19.40625 -32.222656 19.828125 -31.3125 19.828125 -30.15625 C 19.828125 -29.476562 19.71875 -28.816406 19.5 -28.171875 L 12.296875 -4.765625 C 12.203125 -4.398438 12.15625 -4.082031 12.15625 -3.8125 C 12.15625 -3.414062 12.234375 -3.101562 12.390625 -2.875 C 12.546875 -2.644531 12.757812 -2.421875 13.03125 -2.203125 C 13.25 -1.984375 13.398438 -1.804688 13.484375 -1.671875 C 13.578125 -1.535156 13.59375 -1.359375 13.53125 -1.140625 C 13.382812 -0.742188 13.082031 -0.453125 12.625 -0.265625 C 12.164062 -0.0859375 11.460938 0 10.515625 0 L 0.046875 0 C -0.742188 0 -1.320312 -0.128906 -1.6875 -0.390625 C -2.0625 -0.648438 -2.1875 -0.992188 -2.0625 -1.421875 C -1.9375 -1.785156 -1.613281 -2.109375 -1.09375 -2.390625 C -0.632812 -2.628906 -0.253906 -2.914062 0.046875 -3.25 C 0.347656 -3.59375 0.609375 -4.128906 0.828125 -4.859375 L 7.796875 -27.765625 C 7.890625 -28.035156 7.9375 -28.265625 7.9375 -28.453125 C 7.9375 -28.785156 7.851562 -29.054688 7.6875 -29.265625 C 7.519531 -29.484375 7.296875 -29.703125 7.015625 -29.921875 C 6.710938 -30.160156 6.492188 -30.375 6.359375 -30.5625 C 6.222656 -30.75 6.195312 -30.992188 6.28125 -31.296875 C 6.46875 -32.003906 7.429688 -32.613281 9.171875 -33.125 C 10.921875 -33.644531 12.742188 -33.90625 14.640625 -33.90625 Z M 14.640625 -33.90625 "/></g></g></g><g clip-path="url(#5c16102096)"><g clip-path="url(#05f0b7bc00)"><g clip-path="url(#9ecbdd6dbf)"><path fill="#ad8b73" d="M 356.664062 104.65625 C 358.214844 105.292969 360.457031 105.640625 361.738281 104.335938 C 363.148438 102.089844 364.503906 99.800781 365.488281 97.324219 C 366.28125 95.441406 366.972656 93.1875 365.941406 91.242188 C 365.234375 89.992188 364.375 88.695312 363.003906 88.140625 C 360.304688 86.964844 355.71875 88.070312 354.550781 90.980469 C 353.335938 93.148438 352.605469 95.523438 351.75 97.847656 C 350.667969 99.992188 352.480469 102.332031 354.242188 103.464844 C 353.03125 106.445312 351.316406 109.1875 350.238281 112.21875 C 349.261719 110.488281 347.890625 105.949219 346.121094 105.253906 C 345.261719 105.125 344.378906 106.101562 344.722656 106.945312 C 344.917969 107.324219 345.214844 107.640625 345.441406 108.007812 C 348.019531 111.832031 349.496094 117.046875 347.125 121.277344 C 345.167969 125.84375 342.511719 130.070312 340.832031 134.757812 C 340.523438 135.59375 340.019531 136.445312 340.359375 137.363281 C 340.53125 137.84375 340.828125 138.34375 341.203125 138.699219 C 341.496094 138.972656 341.902344 139.175781 342.304688 139.058594 C 342.515625 139 342.691406 138.949219 342.835938 138.785156 C 342.976562 138.636719 343.050781 138.449219 343.121094 138.265625 C 343.71875 136.683594 344.308594 135.105469 344.9375 133.542969 C 345.863281 131.144531 347.035156 128.867188 348.25 126.613281 C 349.988281 123.398438 351.15625 119.941406 352.261719 116.460938 C 353.503906 112.441406 355.148438 108.574219 356.664062 104.65625 Z M 360.941406 88.242188 C 360.9375 88.246094 360.933594 88.238281 360.941406 88.242188 Z M 353.652344 94.277344 C 354.503906 92.484375 355.097656 90.210938 356.910156 89.171875 C 357.585938 88.828125 358.351562 88.632812 359.089844 88.445312 C 360.804688 88 362.84375 88.253906 364.125 89.613281 C 365.257812 90.882812 366.1875 92.546875 365.832031 94.316406 C 365.199219 97.328125 363.632812 100.058594 362.089844 102.679688 C 361.96875 100.792969 360.242188 97.578125 358.640625 96.5625 C 356.851562 95.585938 354.460938 95.496094 352.777344 96.699219 C 353.066406 95.890625 353.34375 95.078125 353.652344 94.277344 Z M 353.609375 102.25 C 351.898438 100.765625 351.144531 98.140625 353.507812 96.917969 C 355.539062 95.882812 358.539062 96.367188 359.726562 98.5 C 360.660156 99.863281 363.019531 104.003906 360.265625 104.53125 C 359.136719 104.777344 357.921875 104.601562 356.863281 104.121094 C 357.136719 103.347656 357.398438 102.570312 357.65625 101.789062 C 357.941406 100.859375 358.515625 99.851562 357.300781 99.320312 C 356.804688 99.089844 356.136719 99.148438 355.839844 99.65625 C 355.402344 100.753906 354.949219 101.855469 354.480469 102.945312 C 354.171875 102.734375 353.878906 102.5 353.609375 102.25 Z M 341.035156 137.507812 C 341.035156 137.511719 341.042969 137.515625 341.035156 137.507812 Z M 342.496094 138.300781 C 342.464844 138.351562 342.433594 138.394531 342.386719 138.429688 C 342.339844 138.464844 342.285156 138.484375 342.230469 138.496094 C 342.15625 138.519531 342.074219 138.535156 341.996094 138.523438 C 341.832031 138.503906 341.699219 138.378906 341.585938 138.257812 C 341.378906 138.035156 341.1875 137.792969 341.050781 137.519531 C 340.964844 137.355469 340.894531 137.175781 340.859375 136.988281 C 340.835938 136.867188 340.75 136.570312 340.863281 136.480469 C 340.910156 136.441406 340.976562 136.4375 341.027344 136.429688 C 341.28125 136.425781 341.539062 136.5 341.753906 136.636719 C 341.96875 136.777344 342.15625 136.96875 342.296875 137.183594 C 342.472656 137.453125 342.59375 137.769531 342.554688 138.085938 C 342.542969 138.160156 342.523438 138.234375 342.496094 138.300781 Z M 353.371094 111.476562 C 352.058594 115.070312 351.039062 118.777344 349.574219 122.316406 C 347.492188 127.332031 344.515625 131.96875 342.941406 137.171875 C 342.957031 137.132812 342.863281 137.011719 342.84375 136.976562 C 342.804688 136.910156 342.765625 136.847656 342.714844 136.785156 C 342.628906 136.660156 342.527344 136.546875 342.414062 136.445312 C 342.1875 136.242188 341.925781 136.082031 341.640625 135.976562 C 341.5 135.925781 341.351562 135.886719 341.203125 135.867188 C 341.136719 135.855469 341.03125 135.875 341.039062 135.789062 C 341.046875 135.703125 341.097656 135.609375 341.128906 135.53125 C 341.25 135.183594 341.378906 134.839844 341.503906 134.496094 C 341.769531 133.8125 342.046875 133.132812 342.34375 132.46875 C 342.640625 131.792969 342.953125 131.132812 343.273438 130.472656 C 343.589844 129.8125 343.917969 129.152344 344.25 128.5 C 344.578125 127.847656 344.914062 127.195312 345.25 126.542969 C 345.585938 125.886719 345.910156 125.230469 346.238281 124.570312 C 346.566406 123.914062 346.878906 123.253906 347.183594 122.585938 C 347.226562 122.5 347.261719 122.410156 347.300781 122.320312 C 348.160156 120.449219 348.902344 118.476562 348.941406 116.410156 C 348.976562 114.367188 348.304688 112.363281 347.429688 110.503906 C 346.910156 109.410156 346.320312 108.355469 345.664062 107.339844 C 345.398438 106.9375 345.128906 106.375 345.457031 106.023438 C 345.675781 105.792969 346.070312 105.816406 346.339844 105.996094 C 346.609375 106.175781 346.777344 106.460938 346.9375 106.742188 C 348.035156 108.671875 348.992188 110.683594 349.808594 112.746094 C 349.902344 112.984375 350.117188 113.28125 350.339844 113.15625 C 350.425781 113.109375 350.46875 113.015625 350.511719 112.925781 C 352.402344 108.78125 354.296875 104.632812 356.183594 100.480469 C 356.359375 100.101562 356.691406 99.640625 357.085938 99.785156 C 357.484375 99.929688 357.453125 100.511719 357.328125 100.921875 C 356.292969 104.445312 354.734375 107.773438 353.453125 111.210938 C 353.429688 111.304688 353.398438 111.390625 353.371094 111.476562 Z M 363.835938 96.757812 C 364.335938 95.425781 365.300781 93.984375 364.710938 92.527344 C 364.523438 92.207031 364.210938 91.042969 363.730469 91.335938 C 363.421875 91.609375 363.851562 91.957031 363.957031 92.242188 C 364.34375 92.898438 364.457031 93.683594 364.164062 94.390625 C 363.921875 95.113281 363.617188 95.816406 363.3125 96.523438 C 363.160156 96.851562 363.6875 97.101562 363.835938 96.757812 Z M 363.949219 92.222656 Z M 372.6875 113.441406 C 372.285156 112.890625 371.941406 112.28125 371.878906 111.597656 C 371.816406 111.332031 372.019531 110.945312 371.71875 110.792969 C 371.140625 110.5625 370.410156 112.867188 370.320312 113.328125 C 369.347656 111.03125 367.492188 109.175781 365.316406 108.027344 C 364.945312 107.882812 362.699219 106.621094 362.90625 107.585938 C 364.328125 110.996094 362.921875 114.699219 363.507812 118.222656 C 363.121094 117.972656 359.613281 116.449219 360.109375 117.601562 C 360.984375 118.628906 361.15625 119.992188 361.390625 121.277344 C 361.839844 124.199219 363.316406 127.363281 366.414062 128.105469 C 368.96875 128.964844 372.699219 127.550781 374.660156 125.855469 C 376.726562 124.132812 377.085938 121.484375 376.332031 118.976562 C 375.777344 116.757812 374.050781 115.179688 372.6875 113.441406 Z M 376.015625 120.253906 C 376.753906 123.421875 374.488281 125.972656 371.683594 126.980469 C 369.714844 127.792969 367.453125 128.230469 365.484375 127.125 C 363.339844 126.160156 362.429688 123.664062 362.011719 121.488281 C 361.777344 120.273438 361.625 118.964844 361 117.882812 C 361.96875 118.121094 362.929688 118.46875 363.730469 119.050781 C 363.957031 119.234375 364.273438 119 364.175781 118.726562 C 363.382812 115.226562 364.832031 111.433594 363.640625 107.933594 C 366 108.757812 368.074219 110.421875 369.328125 112.609375 C 369.722656 113.304688 370.035156 114.101562 370.230469 114.882812 C 370.324219 115.191406 370.816406 115.082031 370.777344 114.761719 C 370.695312 113.808594 370.941406 112.859375 371.363281 112.023438 C 372.3125 115.109375 375.644531 116.347656 376.015625 120.253906 Z M 371.105469 118.984375 C 370.285156 117.757812 369.0625 116.769531 367.648438 116.367188 C 366.527344 116.316406 368.992188 118.539062 368.105469 122.183594 C 367.636719 121.875 367.15625 121.566406 366.742188 121.171875 C 366.660156 121.09375 366.523438 121.089844 366.429688 121.144531 C 366.011719 121.722656 366.355469 124.226562 366.75 124.878906 C 367.238281 125.925781 368.3125 126.625 369.464844 126.542969 C 370.410156 126.46875 371.492188 126.222656 372.128906 125.46875 C 373.347656 123.496094 372.222656 120.789062 371.105469 118.984375 Z M 369.210938 125.964844 C 369.226562 125.96875 369.246094 125.964844 369.210938 125.964844 Z M 371.820312 121.820312 C 372.070312 122.890625 372.304688 124.496094 371.546875 125.238281 C 370.300781 126.195312 368.074219 126.367188 367.289062 124.699219 C 367.292969 124.703125 367.296875 124.710938 367.296875 124.714844 C 366.847656 123.882812 366.828125 122.925781 366.832031 122.003906 C 367.238281 122.324219 367.6875 122.574219 368.097656 122.886719 C 368.277344 123.023438 368.503906 122.925781 368.558594 122.714844 C 369.050781 120.875 368.898438 118.894531 368.125 117.148438 C 370.03125 117.976562 371.210938 119.894531 371.820312 121.820312 Z M 354.566406 87.734375 C 354.902344 87.890625 355.136719 87.363281 354.800781 87.207031 C 354.691406 87.160156 354.601562 87.085938 354.515625 87 C 354.535156 87.019531 354.535156 87.019531 354.535156 87.019531 C 354.46875 86.949219 354.398438 86.851562 354.351562 86.761719 C 354.355469 86.777344 354.34375 86.742188 354.335938 86.738281 C 354.335938 86.746094 354.335938 86.746094 354.339844 86.75 C 353.820312 85.691406 354.464844 84.441406 353.949219 83.371094 C 353.238281 81.871094 352.203125 82.675781 353.011719 83.085938 C 353.527344 83.433594 353.617188 84.128906 353.597656 84.703125 C 353.597656 84.703125 353.59375 84.800781 353.59375 84.800781 C 353.496094 85.839844 353.484375 87.207031 354.566406 87.734375 Z M 354.175781 86.316406 C 354.179688 86.304688 354.171875 86.269531 354.175781 86.316406 Z M 353.078125 78.933594 C 353.125 78.277344 354.390625 78.753906 354.746094 78.945312 C 356.351562 79.800781 356.511719 81.757812 356.308594 83.378906 C 356.230469 83.707031 356.53125 84.308594 356.078125 84.410156 C 355.285156 84.496094 356.238281 81.492188 355.460938 80.464844 C 355.078125 79.71875 354.25 79.136719 353.394531 79.195312 C 353.230469 79.203125 353.097656 79.089844 353.078125 78.933594 Z M 353.078125 78.933594 " fill-opacity="1" fill-rule="nonzero"/></g></g></g><g clip-path="url(#e669d9ae0e)"><g clip-path="url(#d2575cb895)"><g clip-path="url(#5dca01b18c)"><path fill="#7b6250" d="M 161.882812 95.496094 C 161.476562 95.199219 161.007812 94.671875 160.804688 94.210938 C 160.304688 93.082031 159.300781 92.195312 158.003906 91.898438 C 156.710938 91.601562 155.417969 91.960938 154.476562 92.761719 C 154.09375 93.085938 153.441406 93.355469 152.945312 93.445312 C 151.828125 93.652344 150.882812 94.503906 150.613281 95.679688 C 150.25 97.261719 151.238281 98.839844 152.820312 99.203125 C 153.128906 99.273438 153.433594 99.292969 153.726562 99.265625 C 154.230469 99.222656 154.917969 99.304688 155.359375 99.511719 C 155.621094 99.636719 155.898438 99.734375 156.191406 99.800781 C 156.484375 99.867188 156.777344 99.902344 157.066406 99.902344 C 157.554688 99.90625 158.210938 100.136719 158.644531 100.394531 C 158.898438 100.546875 159.179688 100.660156 159.484375 100.730469 C 161.066406 101.09375 162.644531 100.105469 163.007812 98.523438 C 163.277344 97.34375 162.800781 96.167969 161.882812 95.496094 " fill-opacity="1" fill-rule="nonzero"/></g></g></g><g clip-path="url(#1eafb8b398)"><g clip-path="url(#ea4fbbe1e5)"><g clip-path="url(#58373bfd34)"><path fill="#7b6250" d="M 158.375 90.277344 C 159.367188 90.503906 160.386719 89.75 160.648438 88.597656 C 160.914062 87.441406 160.328125 86.320312 159.335938 86.09375 C 158.34375 85.867188 157.328125 86.617188 157.0625 87.773438 C 156.796875 88.929688 157.386719 90.046875 158.375 90.277344 " fill-opacity="1" fill-rule="nonzero"/></g></g></g><g clip-path="url(#f74b68cc3f)"><g clip-path="url(#322c063167)"><g clip-path="url(#7fa6e7502d)"><path fill="#7b6250" d="M 154.984375 90.5625 C 155.957031 90.265625 156.460938 89.105469 156.113281 87.972656 C 155.765625 86.839844 154.695312 86.164062 153.726562 86.460938 C 152.753906 86.761719 152.246094 87.921875 152.59375 89.054688 C 152.945312 90.1875 154.015625 90.863281 154.984375 90.5625 " fill-opacity="1" fill-rule="nonzero"/></g></g></g><g clip-path="url(#72ee961a10)"><g clip-path="url(#bc51899f13)"><g clip-path="url(#29873ca420)"><path fill="#7b6250" d="M 152.210938 92.503906 C 152.902344 91.757812 152.761719 90.5 151.894531 89.695312 C 151.027344 88.886719 149.761719 88.835938 149.070312 89.582031 C 148.378906 90.328125 148.519531 91.585938 149.386719 92.390625 C 150.253906 93.199219 151.519531 93.25 152.210938 92.503906 " fill-opacity="1" fill-rule="nonzero"/></g></g></g><g clip-path="url(#359c118535)"><g clip-path="url(#7c7772b97c)"><g clip-path="url(#06c60dd8ac)"><path fill="#7b6250" d="M 161.304688 92.011719 C 162.046875 92.707031 163.304688 92.5625 164.113281 91.695312 C 164.917969 90.828125 164.96875 89.5625 164.222656 88.871094 C 163.480469 88.179688 162.222656 88.320312 161.414062 89.1875 C 160.609375 90.054688 160.558594 91.320312 161.304688 92.011719 " fill-opacity="1" fill-rule="nonzero"/></g></g></g><g clip-path="url(#8cecf58c2d)"><g clip-path="url(#38ba20e270)"><g clip-path="url(#f3bc9a3693)"><path fill="#7b6250" d="M 167.054688 93.707031 C 166.757812 92.734375 165.597656 92.230469 164.464844 92.578125 C 163.332031 92.925781 162.65625 93.996094 162.953125 94.96875 C 163.253906 95.941406 164.414062 96.445312 165.546875 96.097656 C 166.679688 95.75 167.355469 94.679688 167.054688 93.707031 " fill-opacity="1" fill-rule="nonzero"/></g></g></g></svg>