<svg width="24" height="24" viewBox="0 0 27 27" fill="none" xmlns="http://www.w3.org/2000/svg">
<path fill-rule="evenodd" clip-rule="evenodd" d="M10.152 3.13087C10.2076 2.88105 10.3466 2.65763 10.5462 2.49749C10.7459 2.33734 10.9941 2.25004 11.25 2.25H15.75C16.0059 2.25004 16.2542 2.33734 16.4538 2.49749C16.6534 2.65763 16.7925 2.88105 16.848 3.13087L17.343 5.3595C17.793 5.57325 18.2217 5.82075 18.6255 6.102L20.8058 5.41575C21.0499 5.33899 21.3129 5.34776 21.5514 5.44061C21.7899 5.53347 21.9896 5.70486 22.1175 5.9265L24.3675 9.8235C24.4955 10.0452 24.5441 10.3039 24.5053 10.5569C24.4664 10.8099 24.3424 11.0421 24.1538 11.2151L22.4696 12.7597C22.5098 13.2524 22.5098 13.7476 22.4696 14.2402L24.1538 15.7849C24.3424 15.9579 24.4664 16.1901 24.5053 16.4431C24.5441 16.6961 24.4955 16.9548 24.3675 17.1765L22.1175 21.0735C21.9896 21.2951 21.7899 21.4665 21.5514 21.5594C21.3129 21.6522 21.0499 21.661 20.8058 21.5842L18.6266 20.898C18.2216 21.1792 17.793 21.4267 17.3442 21.6405L16.8492 23.868C16.7938 24.1182 16.6547 24.342 16.4548 24.5024C16.2549 24.6628 16.0063 24.7502 15.75 24.75H11.25C10.9941 24.75 10.7459 24.6627 10.5462 24.5025C10.3466 24.3424 10.2076 24.1189 10.152 23.8691L9.65702 21.6405C9.20702 21.4267 8.7784 21.1792 8.37453 20.898L6.19428 21.5842C5.95014 21.661 5.68713 21.6522 5.44865 21.5594C5.21017 21.4665 5.01047 21.2951 4.88253 21.0735L2.63253 17.1765C2.50452 16.9548 2.45593 16.6961 2.49479 16.4431C2.53365 16.1901 2.65764 15.9579 2.84628 15.7849L4.5304 14.2402C4.49023 13.7476 4.49023 13.2524 4.5304 12.7597L2.84628 11.2162C2.65764 11.0432 2.53365 10.811 2.49479 10.558C2.45593 10.305 2.50452 10.0463 2.63253 9.82462L4.88253 5.92762C5.01047 5.70599 5.21017 5.53459 5.44865 5.44174C5.68713 5.34888 5.95014 5.34011 6.19428 5.41687L8.3734 6.10312C8.7784 5.82187 9.20703 5.57437 9.6559 5.36062L10.1509 3.13313L10.152 3.13087ZM13.5 16.875C14.3951 16.875 15.2536 16.5194 15.8865 15.8865C16.5194 15.2535 16.875 14.3951 16.875 13.5C16.875 12.6049 16.5194 11.7464 15.8865 11.1135C15.2536 10.4806 14.3951 10.125 13.5 10.125C12.6049 10.125 11.7465 10.4806 11.1135 11.1135C10.4806 11.7464 10.125 12.6049 10.125 13.5C10.125 14.3951 10.4806 15.2535 11.1135 15.8865C11.7465 16.5194 12.6049 16.875 13.5 16.875V16.875Z" fill="#7B6250"/>
</svg>
