<svg width="30" height="30" viewBox="0 0 30 30" fill="none" xmlns="http://www.w3.org/2000/svg">
<path fill-rule="evenodd" clip-rule="evenodd" d="M11.25 5.595V3.75H11.0812C10.4944 3.75 9.92625 3.86625 9.37687 4.09688C8.83009 4.32609 8.33568 4.6642 7.92375 5.09063C7.52287 5.49353 7.20834 5.97394 6.99938 6.5025V6.50438C6.81336 7.00627 6.68871 7.52881 6.62813 8.06063V8.06438C6.5748 8.602 6.55976 9.14274 6.58312 9.6825C6.60562 10.2263 6.61688 10.77 6.61688 11.3119C6.61688 11.6925 6.54187 12.0488 6.3975 12.3844V12.3863C6.12232 13.0412 5.61006 13.5682 4.96313 13.8619C4.63324 14.006 4.27685 14.0794 3.91687 14.0775H3.75V15.9225H3.91875C4.28437 15.9225 4.63125 15.9975 4.96125 16.1494L4.96313 16.1513C5.29688 16.2975 5.58 16.4963 5.81625 16.7475L5.82 16.7513C6.06375 16.995 6.25688 17.2856 6.39563 17.6231L6.3975 17.6269C6.54375 17.9644 6.61688 18.3169 6.61688 18.6881C6.61688 19.2319 6.60562 19.7756 6.58312 20.3175C6.56062 20.8725 6.57563 21.4144 6.62813 21.9488V21.9506C6.69 22.4812 6.81375 22.9969 6.9975 23.4956V23.4975C7.19625 24.0094 7.50562 24.48 7.92375 24.9094C8.34187 25.3406 8.8275 25.6725 9.37687 25.9031C9.92625 26.1337 10.4944 26.25 11.0831 26.25H11.25V24.405H11.0812C10.7081 24.405 10.3556 24.3337 10.0275 24.1894C9.70919 24.0407 9.41923 23.8376 9.17062 23.5894C8.92928 23.3324 8.73336 23.0363 8.59125 22.7138C8.4525 22.3763 8.385 22.02 8.385 21.6394C8.385 21.2119 8.39062 20.79 8.40562 20.3794C8.42062 19.9519 8.42062 19.5356 8.40562 19.1325C8.39902 18.7306 8.36456 18.3296 8.3025 17.9325C8.24285 17.5408 8.13712 17.1575 7.9875 16.7906C7.69515 16.0805 7.21721 15.462 6.60375 15C7.21721 14.538 7.69515 13.9195 7.9875 13.2094C8.1375 12.8494 8.24062 12.4725 8.3025 12.0806C8.36438 11.6869 8.39812 11.2875 8.40562 10.8806C8.42062 10.4681 8.42062 10.0519 8.40562 9.63188C8.39062 9.21188 8.38313 8.78813 8.38313 8.36063C8.37987 7.82322 8.53379 7.29659 8.82595 6.84553C9.1181 6.39447 9.53575 6.03866 10.0275 5.82188C10.3586 5.67007 10.7189 5.59263 11.0831 5.595H11.25ZM18.75 24.405V26.25H18.9188C19.5056 26.25 20.0737 26.1337 20.6231 25.9031C21.1725 25.6725 21.6581 25.3406 22.0763 24.9094C22.4944 24.4781 22.8038 24.0094 23.0006 23.4975V23.4956C23.1881 22.9969 23.31 22.4775 23.3719 21.9394V21.9356C23.4244 21.4106 23.4394 20.8725 23.4169 20.3175C23.3944 19.7738 23.3831 19.23 23.3831 18.6881C23.3831 18.3075 23.4581 17.9513 23.6025 17.6156V17.6138C23.8777 16.9588 24.3899 16.4318 25.0369 16.1381C25.3669 15.9938 25.7156 15.9225 26.0831 15.9225H26.25V14.0775H26.0812C25.7156 14.0775 25.3687 14.0025 25.0387 13.8506L25.0369 13.8488C24.7149 13.71 24.4247 13.5071 24.1838 13.2525L24.18 13.2488C23.9322 12.9992 23.7365 12.7028 23.6044 12.3769L23.6025 12.3731C23.4566 12.0384 23.3819 11.677 23.3831 11.3119C23.3831 10.7681 23.3944 10.2244 23.4169 9.6825C23.4402 9.13837 23.4251 8.59327 23.3719 8.05125V8.04938C23.311 7.52145 23.187 7.00274 23.0025 6.50438V6.5025C22.793 5.97378 22.4778 5.49336 22.0763 5.09063C21.6643 4.6642 21.1699 4.32609 20.6231 4.09688C20.0835 3.86769 19.5032 3.74971 18.9169 3.75H18.75V5.595H18.9188C19.2938 5.595 19.6425 5.66625 19.9725 5.81063C20.2987 5.96438 20.5837 6.16313 20.8294 6.41063C21.0675 6.66188 21.2606 6.95438 21.4088 7.28625C21.5475 7.62375 21.615 7.98 21.615 8.36063C21.615 8.78813 21.6094 9.20813 21.5944 9.62063C21.5794 10.0481 21.5794 10.4644 21.5944 10.8675C21.6019 11.2838 21.6356 11.6831 21.6975 12.0675C21.7594 12.4688 21.8644 12.8475 22.0125 13.2094C22.3047 13.9196 22.7827 14.5381 23.3962 15C22.7827 15.4619 22.3047 16.0804 22.0125 16.7906C21.8642 17.1534 21.7585 17.5322 21.6975 17.9194C21.6356 18.3131 21.6019 18.7125 21.5944 19.1194C21.5794 19.5319 21.5794 19.9481 21.5944 20.3681C21.6094 20.7881 21.6169 21.2119 21.6169 21.6394C21.6199 22.3647 21.337 23.0619 20.8294 23.58C20.5846 23.8323 20.2937 24.0354 19.9725 24.1781C19.6414 24.3299 19.2811 24.4074 18.9169 24.405H18.75Z" fill="#7B6250"/>
</svg>
