<svg width="22" height="20" viewBox="0 0 22 20" fill="none" xmlns="http://www.w3.org/2000/svg">
<path d="M19.1765 4.33592L16.6011 1.83592C16.5114 1.74852 16.4048 1.67917 16.2874 1.63186C16.17 1.58454 16.0441 1.56018 15.917 1.56018C15.7899 1.56018 15.664 1.58454 15.5467 1.63186C15.4293 1.67917 15.3226 1.74852 15.2329 1.83592L7.50668 9.33592C7.41671 9.42295 7.34547 9.52648 7.29711 9.64048C7.24875 9.75449 7.22424 9.87669 7.22499 9.99998V12.5C7.22499 12.7486 7.32674 12.9871 7.50786 13.1629C7.68898 13.3387 7.93463 13.4375 8.19077 13.4375H10.7662C11.0221 13.4356 11.2672 13.3376 11.4503 13.164L19.1765 5.66405C19.2666 5.57695 19.338 5.47345 19.3867 5.3595C19.4355 5.24555 19.4606 5.12337 19.4606 4.99998C19.4606 4.87659 19.4355 4.75442 19.3867 4.64047C19.338 4.52651 19.2666 4.42302 19.1765 4.33592ZM15.917 3.82811L17.1242 4.99998L16.2389 5.85936L15.0317 4.68748L15.917 3.82811ZM10.3638 11.5625H9.15655V10.3906L13.6635 6.01561L14.8708 7.18748L10.3638 11.5625ZM18.8144 10.0469V16.25C18.8122 16.6638 18.642 17.06 18.3406 17.3526C18.0392 17.6452 17.631 17.8104 17.2047 17.8125H4.32765C3.9014 17.8104 3.49321 17.6452 3.19181 17.3526C2.8904 17.06 2.72013 16.6638 2.71802 16.25V3.74998C2.72013 3.33621 2.8904 2.93998 3.19181 2.6474C3.49321 2.35482 3.9014 2.18954 4.32765 2.18748H10.7179C10.974 2.18748 11.2197 2.28625 11.4008 2.46207C11.5819 2.63789 11.6837 2.87634 11.6837 3.12498C11.6837 3.37362 11.5819 3.61208 11.4008 3.7879C11.2197 3.96371 10.974 4.06248 10.7179 4.06248H4.64958V15.9375H16.8828V10.0469C16.8828 9.79822 16.9846 9.55976 17.1657 9.38394C17.3468 9.20813 17.5924 9.10936 17.8486 9.10936C18.1047 9.10936 18.3504 9.20813 18.5315 9.38394C18.7126 9.55976 18.8144 9.79822 18.8144 10.0469V10.0469Z" fill="#7B6250"/>
</svg>
