<svg width="27" height="27" viewBox="0 0 27 27" fill="none" xmlns="http://www.w3.org/2000/svg">
<path d="M21.375 2.25H6.75C5.39325 2.25 3.375 3.14887 3.375 5.625V21.375C3.375 23.8511 5.39325 24.75 6.75 24.75H23.625V22.5H6.7635C6.24375 22.4865 5.625 22.2817 5.625 21.375C5.625 21.2614 5.63513 21.1601 5.652 21.0679C5.778 20.4199 6.309 20.2612 6.7635 20.25H23.625V4.5C23.625 3.90326 23.3879 3.33097 22.966 2.90901C22.544 2.48705 21.9717 2.25 21.375 2.25ZM21.375 12.375L19.125 11.25L16.875 12.375V4.5H21.375V12.375Z" fill="#7B6250"/>
</svg>
