<svg width="current" height="current" viewBox="0 0 24 29" fill="none" xmlns="http://www.w3.org/2000/svg">
<path d="M8.38442 2.99571C8.90952 2.80441 9.47301 2.83619 9.98107 3.08577C10.4891 3.33534 10.9111 3.78765 11.1768 4.36741L11.2656 4.58346L12.06 6.71641C12.3011 7.36381 12.3794 8.08257 12.2851 8.78329C12.1908 9.48401 11.9281 10.1358 11.5296 10.6575L11.37 10.8489L10.1184 12.2598C9.89283 12.5179 10.062 13.5169 10.878 15.225C11.6124 16.762 12.21 17.4798 12.504 17.5189H12.5556L12.6192 17.5044L15.0792 16.5953C15.4098 16.4727 15.7627 16.4679 16.0955 16.5813C16.4283 16.6947 16.7271 16.9215 16.956 17.2347L17.0652 17.4015L18.6936 20.1275C19.0128 20.6618 19.1718 21.3115 19.1445 21.9696C19.1173 22.6277 18.9053 23.255 18.5436 23.7481L18.3972 23.9308L17.7468 24.6761C17.1628 25.3444 16.4322 25.7961 15.6419 25.9773C14.8516 26.1585 14.0349 26.0617 13.2888 25.6984C10.9668 24.5674 8.85722 21.9835 6.94082 17.9728C5.02083 13.9519 4.22283 10.4473 4.57923 7.44576C4.68707 6.53845 4.99627 5.68337 5.47399 4.97133C5.9517 4.25929 6.58009 3.71688 7.29243 3.40171L7.52402 3.30891L8.38442 2.99571Z" fill="#7B6250"/>
</svg>
