<svg width="80" height="80" viewBox="10 10 80 80" fill="none" xmlns="http://www.w3.org/2000/svg">
<path d="M29.1667 50.0001H45.8333V33.3334H50V50.0001H66.6667V54.1667H50V70.8334H45.8333V54.1667H29.1667V50.0001ZM25 16.6667H70.8333C74.1485 16.6667 77.328 17.9837 79.6722 20.3279C82.0164 22.6721 83.3333 25.8515 83.3333 29.1667V75.0001C83.3333 78.3153 82.0164 81.4947 79.6722 83.8389C77.328 86.1831 74.1485 87.5001 70.8333 87.5001H25C21.6848 87.5001 18.5054 86.1831 16.1612 83.8389C13.817 81.4947 12.5 78.3153 12.5 75.0001V29.1667C12.5 25.8515 13.817 22.6721 16.1612 20.3279C18.5054 17.9837 21.6848 16.6667 25 16.6667V16.6667ZM25 20.8334C22.7899 20.8334 20.6702 21.7114 19.1074 23.2742C17.5446 24.837 16.6667 26.9566 16.6667 29.1667V75.0001C16.6667 77.2102 17.5446 79.3298 19.1074 80.8926C20.6702 82.4554 22.7899 83.3334 25 83.3334H70.8333C73.0435 83.3334 75.1631 82.4554 76.7259 80.8926C78.2887 79.3298 79.1667 77.2102 79.1667 75.0001V29.1667C79.1667 26.9566 78.2887 24.837 76.7259 23.2742C75.1631 21.7114 73.0435 20.8334 70.8333 20.8334H25Z" fill="#C6C6C6"/>
</svg>
