<svg width="current" height="current" viewBox="0 0 65 65" fill="none" xmlns="http://www.w3.org/2000/svg">
<path d="M54.3339 50.639C57.251 47.1292 59.2799 42.9685 60.2489 38.5087C61.2179 34.049 61.0986 29.4215 59.9009 25.0177C58.7033 20.6138 56.4625 16.5632 53.3683 13.2085C50.2741 9.85379 46.4175 7.29367 42.1246 5.7447C37.8317 4.19572 33.2289 3.70348 28.7055 4.30961C24.1822 4.91573 19.8713 6.60239 16.1377 9.22691C12.404 11.8514 9.35744 15.3366 7.2556 19.3876C5.15375 23.4385 4.0585 27.9362 4.0625 32.4999C4.06403 39.1344 6.40198 45.5564 10.6661 50.639L10.6255 50.6735C10.7677 50.8442 10.9302 50.9904 11.0764 51.159C11.2592 51.3682 11.4562 51.5653 11.6452 51.7684C12.2139 52.3859 12.7989 52.979 13.4123 53.5356C13.5992 53.7062 13.7922 53.8646 13.9811 54.0271C14.6311 54.5877 15.2994 55.1199 15.992 55.6156C16.0814 55.6765 16.1627 55.7557 16.252 55.8187V55.7943C21.0094 59.1422 26.6847 60.9389 32.502 60.9389C38.3193 60.9389 43.9946 59.1422 48.752 55.7943V55.8187C48.8414 55.7557 48.9206 55.6765 49.012 55.6156C49.7027 55.1179 50.373 54.5877 51.023 54.0271C51.2119 53.8646 51.4048 53.7042 51.5917 53.5356C52.2052 52.977 52.7901 52.3859 53.3589 51.7684C53.5478 51.5653 53.7428 51.3682 53.9277 51.159C54.0719 50.9904 54.2364 50.8442 54.3786 50.6715L54.3339 50.639ZM32.5 16.2499C34.3078 16.2499 36.0751 16.786 37.5783 17.7904C39.0814 18.7948 40.253 20.2224 40.9448 21.8926C41.6367 23.5628 41.8177 25.4007 41.465 27.1738C41.1123 28.9469 40.2417 30.5756 38.9634 31.854C37.6851 33.1323 36.0564 34.0029 34.2832 34.3556C32.5101 34.7083 30.6723 34.5272 29.002 33.8354C27.3318 33.1436 25.9042 31.972 24.8998 30.4688C23.8955 28.9657 23.3594 27.1984 23.3594 25.3906C23.3594 22.9663 24.3224 20.6414 26.0366 18.9272C27.7508 17.213 30.0758 16.2499 32.5 16.2499ZM16.2642 50.639C16.2995 47.9719 17.3833 45.4259 19.2813 43.5518C21.1794 41.6778 23.7389 40.6263 26.4062 40.6249H38.5937C41.2611 40.6263 43.8206 41.6778 45.7186 43.5518C47.6167 45.4259 48.7005 47.9719 48.7358 50.639C44.2809 54.6534 38.4968 56.8751 32.5 56.8751C26.5032 56.8751 20.7191 54.6534 16.2642 50.639Z" fill="current"/>
</svg>
