<svg width="20" height="20" viewBox="0 0 20 20" fill="none" xmlns="http://www.w3.org/2000/svg">
<path d="M9.61 8.005H10.592L10.392 9.005H9.41L9.61 8.005ZM6 2C5.46957 2 4.96086 2.21071 4.58579 2.58579C4.21071 2.96086 4 3.46957 4 4V16C4 16.5304 4.21071 17.0391 4.58579 17.4142C4.96086 17.7893 5.46957 18 6 18H15.504C15.6366 18 15.7638 17.9473 15.8576 17.8536C15.9513 17.7598 16.004 17.6326 16.004 17.5C16.004 17.3674 15.9513 17.2402 15.8576 17.1464C15.7638 17.0527 15.6366 17 15.504 17H6C5.73496 17 5.48075 16.8948 5.29325 16.7075C5.10574 16.5201 5.00027 16.266 5 16.001H15.504C15.6366 16.001 15.7638 15.9483 15.8576 15.8546C15.9513 15.7608 16.004 15.6336 16.004 15.501V4C16.004 3.46957 15.7933 2.96086 15.4182 2.58579C15.0431 2.21071 14.5344 2 14.004 2H6ZM11.599 5.511C11.7289 5.53706 11.8432 5.61363 11.9167 5.72388C11.9902 5.83413 12.0169 5.96905 11.991 6.099L11.811 7.005H12.751C12.8836 7.005 13.0108 7.05768 13.1046 7.15145C13.1983 7.24521 13.251 7.37239 13.251 7.505C13.251 7.63761 13.1983 7.76479 13.1046 7.85855C13.0108 7.95232 12.8836 8.005 12.751 8.005H11.611L11.411 9.005H12.501C12.6336 9.005 12.7608 9.05768 12.8546 9.15145C12.9483 9.24521 13.001 9.37239 13.001 9.505C13.001 9.63761 12.9483 9.76478 12.8546 9.85855C12.7608 9.95232 12.6336 10.005 12.501 10.005H11.212L10.994 11.098C10.9642 11.2242 10.8866 11.3338 10.7775 11.4039C10.6684 11.4739 10.5364 11.4988 10.4093 11.4734C10.2822 11.448 10.1699 11.3742 10.0962 11.2676C10.0224 11.161 9.99297 11.0299 10.014 10.902L10.192 10.005H9.21L8.991 11.098C8.98011 11.1642 8.956 11.2276 8.92011 11.2843C8.88422 11.341 8.83728 11.3899 8.78209 11.4281C8.72691 11.4662 8.66459 11.4929 8.59888 11.5065C8.53316 11.5201 8.46537 11.5203 8.39957 11.5072C8.33376 11.494 8.27128 11.4677 8.21584 11.4299C8.16041 11.3921 8.11315 11.3435 8.07689 11.287C8.04063 11.2305 8.01611 11.1674 8.00479 11.1012C7.99347 11.0351 7.99558 10.9673 8.011 10.902L8.191 10.005H7.253C7.12039 10.005 6.99322 9.95232 6.89945 9.85855C6.80568 9.76478 6.753 9.63761 6.753 9.505C6.753 9.37239 6.80568 9.24521 6.89945 9.15145C6.99322 9.05768 7.12039 9.005 7.253 9.005H8.39L8.59 8.005H7.5C7.36739 8.005 7.24022 7.95232 7.14645 7.85855C7.05268 7.76479 7 7.63761 7 7.505C7 7.37239 7.05268 7.24521 7.14645 7.15145C7.24022 7.05768 7.36739 7.005 7.5 7.005H8.79L9.011 5.903C9.04023 5.77615 9.11778 5.66571 9.22717 5.59514C9.33655 5.52457 9.46915 5.49944 9.59677 5.52509C9.72439 5.55075 9.83697 5.62516 9.91059 5.73252C9.98421 5.83987 10.0131 5.97171 9.991 6.1L9.811 7.005H10.791L11.011 5.904C11.0238 5.83958 11.0492 5.77831 11.0856 5.7237C11.1221 5.66908 11.169 5.62218 11.2236 5.58569C11.2782 5.54919 11.3394 5.52381 11.4039 5.511C11.4683 5.49818 11.5346 5.49818 11.599 5.511Z" fill="#7B6250"/>
</svg>
