<svg width="20" height="20" viewBox="0 0 27 27" fill="none" xmlns="http://www.w3.org/2000/svg">
<path d="M23.944 9.31023L17.2494 8.33728L14.2567 2.27019C14.175 2.10407 14.0405 1.9696 13.8744 1.88786C13.4578 1.6822 12.9515 1.85359 12.7432 2.27019L9.75057 8.33728L3.05594 9.31023C2.87137 9.33659 2.70262 9.42361 2.57342 9.55544C2.41722 9.71598 2.33115 9.93197 2.33412 10.1559C2.33709 10.3799 2.42885 10.5935 2.58924 10.7499L7.43289 15.4722L6.28856 22.1405C6.26172 22.2956 6.27889 22.4552 6.3381 22.601C6.39732 22.7469 6.49623 22.8732 6.6236 22.9657C6.75097 23.0582 6.90172 23.1132 7.05874 23.1244C7.21576 23.1356 7.37278 23.1026 7.51199 23.0291L13.5 19.8808L19.488 23.0291C19.6514 23.1161 19.8413 23.1451 20.0232 23.1134C20.482 23.0343 20.7905 22.5993 20.7114 22.1405L19.5671 15.4722L24.4107 10.7499C24.5426 10.6207 24.6296 10.4519 24.6559 10.2674C24.7271 9.80593 24.4054 9.37878 23.944 9.31023Z" fill="#7B6250"/>
</svg>
