<svg width="27" height="27" viewBox="0 0 27 27" fill="none" xmlns="http://www.w3.org/2000/svg">
<path fill-rule="evenodd" clip-rule="evenodd" d="M17.5343 3.37502C17.9562 2.95321 18.5284 2.71625 19.125 2.71625C19.7216 2.71625 20.2938 2.95321 20.7157 3.37502L23.625 6.28427C24.0468 6.7062 24.2838 7.2784 24.2838 7.87502C24.2838 8.47164 24.0468 9.04383 23.625 9.46577L21.8407 11.25L15.75 5.15927L17.5343 3.37502ZM14.1593 6.75002L4.03425 16.875C3.61226 17.2969 3.37513 17.8691 3.375 18.4658V21.375C3.375 21.9718 3.61205 22.5441 4.03401 22.966C4.45597 23.388 5.02826 23.625 5.625 23.625H8.53425C9.13094 23.6249 9.70314 23.3878 10.125 22.9658L20.25 12.8408L14.1593 6.75002Z" fill="#7B6250"/>
</svg>
