<svg width="25" height="25" viewBox="0 0 25 25" fill="none" xmlns="http://www.w3.org/2000/svg">
<path d="M12.5 3.12813C12.09 3.12813 11.6841 3.20888 11.3053 3.36577C10.9265 3.52266 10.5824 3.75261 10.2925 4.0425C10.0026 4.3324 9.77265 4.67655 9.61576 5.05531C9.45887 5.43408 9.37812 5.84003 9.37812 6.25C9.37812 6.65997 9.45887 7.06593 9.61576 7.44469C9.77265 7.82346 10.0026 8.16761 10.2925 8.4575C10.5824 8.74739 10.9265 8.97735 11.3053 9.13424C11.6841 9.29113 12.09 9.37188 12.5 9.37188C13.328 9.37188 14.122 9.04297 14.7075 8.4575C15.293 7.87204 15.6219 7.07798 15.6219 6.25C15.6219 5.42203 15.293 4.62797 14.7075 4.0425C14.122 3.45704 13.328 3.12813 12.5 3.12813V3.12813ZM19.5312 4.6875C18.9096 4.6875 18.3135 4.93443 17.874 5.37397C17.4344 5.81351 17.1875 6.40965 17.1875 7.03125C17.1875 7.65285 17.4344 8.249 17.874 8.68853C18.3135 9.12807 18.9096 9.375 19.5312 9.375C20.1529 9.375 20.749 9.12807 21.1885 8.68853C21.6281 8.249 21.875 7.65285 21.875 7.03125C21.875 6.40965 21.6281 5.81351 21.1885 5.37397C20.749 4.93443 20.1529 4.6875 19.5312 4.6875V4.6875ZM5.46875 4.6875C4.84715 4.6875 4.25101 4.93443 3.81147 5.37397C3.37193 5.81351 3.125 6.40965 3.125 7.03125C3.125 7.65285 3.37193 8.249 3.81147 8.68853C4.25101 9.12807 4.84715 9.375 5.46875 9.375C6.09035 9.375 6.68649 9.12807 7.12603 8.68853C7.56557 8.249 7.8125 7.65285 7.8125 7.03125C7.8125 6.40965 7.56557 5.81351 7.12603 5.37397C6.68649 4.93443 6.09035 4.6875 5.46875 4.6875ZM7.8125 12.4891C7.81539 12.0766 7.98128 11.6819 8.27399 11.3913C8.56671 11.1006 8.96249 10.9375 9.375 10.9375H15.625C16.0394 10.9375 16.4368 11.1021 16.7299 11.3951C17.0229 11.6882 17.1875 12.0856 17.1875 12.5V17.1875C17.1874 17.6793 17.1104 18.168 16.9594 18.6359C16.6134 19.6964 15.9007 20.5988 14.9492 21.1811C13.9978 21.7634 12.8699 21.9874 11.7682 21.8129C10.6664 21.6385 9.66294 21.0769 8.93794 20.2292C8.21294 19.3814 7.81391 18.303 7.8125 17.1875V12.4891ZM6.25 12.5C6.25 11.9297 6.40156 11.3969 6.66875 10.9375H3.125C2.7106 10.9375 2.31317 11.1021 2.02015 11.3951C1.72712 11.6882 1.5625 12.0856 1.5625 12.5V16.4063C1.56229 17.0458 1.7191 17.6756 2.01918 18.2404C2.31925 18.8051 2.7534 19.2876 3.2835 19.6454C3.81361 20.0031 4.42344 20.2253 5.05946 20.2923C5.69548 20.3593 6.33823 20.2691 6.93125 20.0297C6.48153 19.1493 6.248 18.1745 6.25 17.1859V12.5ZM18.75 12.5V17.1875C18.75 18.2109 18.5047 19.1766 18.0688 20.0297C18.6618 20.2691 19.3045 20.3593 19.9405 20.2923C20.5766 20.2253 21.1864 20.0031 21.7165 19.6454C22.2466 19.2876 22.6808 18.8051 22.9808 18.2404C23.2809 17.6756 23.4377 17.0458 23.4375 16.4063V12.5C23.4375 12.0856 23.2729 11.6882 22.9799 11.3951C22.6868 11.1021 22.2894 10.9375 21.875 10.9375H18.3313C18.5969 11.3969 18.75 11.9297 18.75 12.5Z" fill="#7B6250"/>
</svg>
