<svg width="18" height="18" viewBox="0 0 18 18" fill="none" xmlns="http://www.w3.org/2000/svg">
<path d="M15.9627 6.20694L11.4996 5.55831L9.50448 1.51358C9.44999 1.40284 9.36034 1.31319 9.2496 1.2587C8.97186 1.12159 8.63436 1.23585 8.49549 1.51358L6.50038 5.55831L2.03729 6.20694C1.91425 6.22452 1.80174 6.28253 1.71561 6.37042C1.61148 6.47744 1.5541 6.62143 1.55608 6.77074C1.55806 6.92006 1.61923 7.06247 1.72616 7.16671L4.95526 10.3149L4.19237 14.7605C4.17448 14.8639 4.18592 14.9702 4.2254 15.0675C4.26488 15.1647 4.33082 15.2489 4.41573 15.3106C4.50065 15.3723 4.60114 15.4089 4.70583 15.4164C4.81051 15.4239 4.91519 15.4018 5.00799 15.3528L8.99999 13.254L12.992 15.3528C13.101 15.4108 13.2275 15.4302 13.3488 15.4091C13.6547 15.3564 13.8603 15.0663 13.8076 14.7605L13.0447 10.3149L16.2738 7.16671C16.3617 7.08057 16.4197 6.96807 16.4373 6.84503C16.4848 6.53741 16.2703 6.25264 15.9627 6.20694Z" fill="#F7B603"/>
</svg>
